G04 #@! TF.GenerationSoftware,KiCad,Pcbnew,(5.0.1)-3*
G04 #@! TF.CreationDate,2018-11-27T12:57:36+01:00*
G04 #@! TF.ProjectId,Adafruit_FeatherWing,41646166727569745F46656174686572,rev?*
G04 #@! TF.SameCoordinates,Original*
G04 #@! TF.FileFunction,Copper,L2,Bot,Signal*
G04 #@! TF.FilePolarity,Positive*
%FSLAX46Y46*%
G04 Gerber Fmt 4.6, Leading zero omitted, Abs format (unit mm)*
G04 Created by KiCad (PCBNEW (5.0.1)-3) date 27.11.2018 12:57:36*
%MOMM*%
%LPD*%
G01*
G04 APERTURE LIST*
G04 #@! TA.AperFunction,ComponentPad*
%ADD10R,1.700000X1.700000*%
G04 #@! TD*
G04 #@! TA.AperFunction,ComponentPad*
%ADD11O,1.700000X1.700000*%
G04 #@! TD*
G04 #@! TA.AperFunction,WasherPad*
%ADD12C,3.556000*%
G04 #@! TD*
G04 #@! TA.AperFunction,ViaPad*
%ADD13C,0.600000*%
G04 #@! TD*
G04 #@! TA.AperFunction,Conductor*
%ADD14C,0.200000*%
G04 #@! TD*
G04 #@! TA.AperFunction,Conductor*
%ADD15C,0.254000*%
G04 #@! TD*
G04 APERTURE END LIST*
D10*
G04 #@! TO.P,JP1,1*
G04 #@! TO.N,GND*
X156210000Y-124460000D03*
D11*
G04 #@! TO.P,JP1,2*
G04 #@! TO.N,/SWDIO*
X153670000Y-124460000D03*
G04 #@! TO.P,JP1,3*
G04 #@! TO.N,/SWDCLK*
X151130000Y-124460000D03*
G04 #@! TO.P,JP1,4*
G04 #@! TO.N,/P.24*
X148590000Y-124460000D03*
G04 #@! TO.P,JP1,5*
G04 #@! TO.N,/P.23*
X146050000Y-124460000D03*
G04 #@! TO.P,JP1,6*
G04 #@! TO.N,/P.22*
X143510000Y-124460000D03*
G04 #@! TO.P,JP1,7*
G04 #@! TO.N,/P.20*
X140970000Y-124460000D03*
G04 #@! TO.P,JP1,8*
G04 #@! TO.N,/P.19*
X138430000Y-124460000D03*
G04 #@! TO.P,JP1,9*
G04 #@! TO.N,/P.18*
X135890000Y-124460000D03*
G04 #@! TO.P,JP1,10*
G04 #@! TO.N,/P.17*
X133350000Y-124460000D03*
G04 #@! TO.P,JP1,11*
G04 #@! TO.N,/P.16*
X130810000Y-124460000D03*
G04 #@! TO.P,JP1,12*
G04 #@! TO.N,/P.15*
X128270000Y-124460000D03*
G04 #@! TO.P,JP1,13*
G04 #@! TO.N,GND*
X125730000Y-124460000D03*
G04 #@! TO.P,JP1,14*
G04 #@! TO.N,/P.14*
X123190000Y-124460000D03*
G04 #@! TO.P,JP1,15*
G04 #@! TO.N,VCC*
X120650000Y-124460000D03*
G04 #@! TO.P,JP1,16*
G04 #@! TO.N,/~RESET*
X118110000Y-124460000D03*
G04 #@! TD*
D12*
G04 #@! TO.P,PCB\002A\002A,*
G04 #@! TO.N,*
X160020000Y-123190000D03*
X114300000Y-123190000D03*
X160020000Y-105410000D03*
X114300000Y-105410000D03*
G04 #@! TD*
D10*
G04 #@! TO.P,JP3,1*
G04 #@! TO.N,/P.25*
X156210000Y-104140000D03*
D11*
G04 #@! TO.P,JP3,2*
G04 #@! TO.N,/P.26*
X153670000Y-104140000D03*
G04 #@! TO.P,JP3,3*
G04 #@! TO.N,/P.27*
X151130000Y-104140000D03*
G04 #@! TO.P,JP3,4*
G04 #@! TO.N,/P.28*
X148590000Y-104140000D03*
G04 #@! TO.P,JP3,5*
G04 #@! TO.N,/P.29*
X146050000Y-104140000D03*
G04 #@! TO.P,JP3,6*
G04 #@! TO.N,/P.30*
X143510000Y-104140000D03*
G04 #@! TO.P,JP3,7*
G04 #@! TO.N,/P.31*
X140970000Y-104140000D03*
G04 #@! TO.P,JP3,8*
G04 #@! TO.N,/P.00*
X138430000Y-104140000D03*
G04 #@! TO.P,JP3,9*
G04 #@! TO.N,/P.01*
X135890000Y-104140000D03*
G04 #@! TO.P,JP3,10*
G04 #@! TO.N,/P.02*
X133350000Y-104140000D03*
G04 #@! TO.P,JP3,11*
G04 #@! TO.N,/P.03*
X130810000Y-104140000D03*
G04 #@! TO.P,JP3,12*
G04 #@! TO.N,/P.04*
X128270000Y-104140000D03*
G04 #@! TD*
D13*
G04 #@! TO.N,/SWDCLK*
X155020000Y-115000000D03*
G04 #@! TO.N,GND*
X146970000Y-118900000D03*
X121860000Y-105410000D03*
G04 #@! TO.N,/SWDIO*
X127220000Y-106400000D03*
G04 #@! TO.N,VCC*
X138920000Y-111000000D03*
X120650000Y-114470000D03*
X117220000Y-111000000D03*
G04 #@! TO.N,/~RESET*
X118110000Y-115550000D03*
X153420000Y-116450000D03*
G04 #@! TO.N,/SWDIO*
X155020000Y-114000000D03*
G04 #@! TO.N,/SWDCLK*
X127220000Y-107450000D03*
G04 #@! TO.N,/P.17*
X151220000Y-117300000D03*
X146970000Y-117300000D03*
G04 #@! TD*
D14*
G04 #@! TO.N,VCC*
X138920000Y-111000000D02*
X138920000Y-111000000D01*
X124120000Y-111000000D02*
X124120000Y-111000000D01*
X138920000Y-111000000D02*
X124120000Y-111000000D01*
X117220000Y-111040000D02*
X117220000Y-111000000D01*
X124120000Y-111000000D02*
X117220000Y-111000000D01*
X117220000Y-111000000D02*
X117220000Y-111000000D01*
X120650000Y-114470000D02*
X124120000Y-111000000D01*
G04 #@! TO.N,/~RESET*
X119010000Y-116450000D02*
X118110000Y-115550000D01*
X152320000Y-116450000D02*
X119010000Y-116450000D01*
X152320000Y-116450000D02*
X153420000Y-116450000D01*
G04 #@! TO.N,/SWDIO*
X144370000Y-114000000D02*
X155020000Y-114000000D01*
X136770000Y-106400000D02*
X144370000Y-114000000D01*
X127220000Y-106400000D02*
X136770000Y-106400000D01*
G04 #@! TO.N,/SWDCLK*
X136258002Y-107450000D02*
X127220000Y-107450000D01*
X143808002Y-115000000D02*
X136258002Y-107450000D01*
X143808002Y-115000000D02*
X155020000Y-115000000D01*
G04 #@! TO.N,/P.17*
X151220000Y-117300000D02*
X146970000Y-117300000D01*
G04 #@! TD*
D15*
G04 #@! TO.N,GND*
G36*
X126871161Y-103560582D02*
X126755908Y-104140000D01*
X126871161Y-104719418D01*
X127199375Y-105210625D01*
X127690582Y-105538839D01*
X128123744Y-105625000D01*
X128416256Y-105625000D01*
X128849418Y-105538839D01*
X129340625Y-105210625D01*
X129540000Y-104912239D01*
X129739375Y-105210625D01*
X130230582Y-105538839D01*
X130663744Y-105625000D01*
X130956256Y-105625000D01*
X131389418Y-105538839D01*
X131880625Y-105210625D01*
X132080000Y-104912239D01*
X132279375Y-105210625D01*
X132770582Y-105538839D01*
X133203744Y-105625000D01*
X133496256Y-105625000D01*
X133929418Y-105538839D01*
X134420625Y-105210625D01*
X134620000Y-104912239D01*
X134819375Y-105210625D01*
X135310582Y-105538839D01*
X135743744Y-105625000D01*
X136036256Y-105625000D01*
X136469418Y-105538839D01*
X136960625Y-105210625D01*
X137160000Y-104912239D01*
X137359375Y-105210625D01*
X137850582Y-105538839D01*
X138283744Y-105625000D01*
X138576256Y-105625000D01*
X139009418Y-105538839D01*
X139500625Y-105210625D01*
X139700000Y-104912239D01*
X139899375Y-105210625D01*
X140390582Y-105538839D01*
X140823744Y-105625000D01*
X141116256Y-105625000D01*
X141549418Y-105538839D01*
X142040625Y-105210625D01*
X142240000Y-104912239D01*
X142439375Y-105210625D01*
X142930582Y-105538839D01*
X143363744Y-105625000D01*
X143656256Y-105625000D01*
X144089418Y-105538839D01*
X144580625Y-105210625D01*
X144780000Y-104912239D01*
X144979375Y-105210625D01*
X145470582Y-105538839D01*
X145903744Y-105625000D01*
X146196256Y-105625000D01*
X146629418Y-105538839D01*
X147120625Y-105210625D01*
X147320000Y-104912239D01*
X147519375Y-105210625D01*
X148010582Y-105538839D01*
X148443744Y-105625000D01*
X148736256Y-105625000D01*
X149169418Y-105538839D01*
X149660625Y-105210625D01*
X149860000Y-104912239D01*
X150059375Y-105210625D01*
X150550582Y-105538839D01*
X150983744Y-105625000D01*
X151276256Y-105625000D01*
X151709418Y-105538839D01*
X152200625Y-105210625D01*
X152400000Y-104912239D01*
X152599375Y-105210625D01*
X153090582Y-105538839D01*
X153523744Y-105625000D01*
X153816256Y-105625000D01*
X154249418Y-105538839D01*
X154740625Y-105210625D01*
X154752816Y-105192381D01*
X154761843Y-105237765D01*
X154902191Y-105447809D01*
X155112235Y-105588157D01*
X155360000Y-105637440D01*
X156868000Y-105637440D01*
X156868000Y-122975000D01*
X156495750Y-122975000D01*
X156337000Y-123133750D01*
X156337000Y-124333000D01*
X156357000Y-124333000D01*
X156357000Y-124587000D01*
X156337000Y-124587000D01*
X156337000Y-124607000D01*
X156083000Y-124607000D01*
X156083000Y-124587000D01*
X156063000Y-124587000D01*
X156063000Y-124333000D01*
X156083000Y-124333000D01*
X156083000Y-123133750D01*
X155924250Y-122975000D01*
X155233690Y-122975000D01*
X155000301Y-123071673D01*
X154821673Y-123250302D01*
X154755096Y-123411033D01*
X154740625Y-123389375D01*
X154249418Y-123061161D01*
X153816256Y-122975000D01*
X153523744Y-122975000D01*
X153090582Y-123061161D01*
X152599375Y-123389375D01*
X152400000Y-123687761D01*
X152200625Y-123389375D01*
X151709418Y-123061161D01*
X151276256Y-122975000D01*
X150983744Y-122975000D01*
X150550582Y-123061161D01*
X150059375Y-123389375D01*
X149860000Y-123687761D01*
X149660625Y-123389375D01*
X149169418Y-123061161D01*
X148736256Y-122975000D01*
X148443744Y-122975000D01*
X148010582Y-123061161D01*
X147519375Y-123389375D01*
X147320000Y-123687761D01*
X147120625Y-123389375D01*
X146629418Y-123061161D01*
X146196256Y-122975000D01*
X145903744Y-122975000D01*
X145470582Y-123061161D01*
X144979375Y-123389375D01*
X144780000Y-123687761D01*
X144580625Y-123389375D01*
X144089418Y-123061161D01*
X143656256Y-122975000D01*
X143363744Y-122975000D01*
X142930582Y-123061161D01*
X142439375Y-123389375D01*
X142240000Y-123687761D01*
X142040625Y-123389375D01*
X141549418Y-123061161D01*
X141116256Y-122975000D01*
X140823744Y-122975000D01*
X140390582Y-123061161D01*
X139899375Y-123389375D01*
X139700000Y-123687761D01*
X139500625Y-123389375D01*
X139009418Y-123061161D01*
X138576256Y-122975000D01*
X138283744Y-122975000D01*
X137850582Y-123061161D01*
X137359375Y-123389375D01*
X137160000Y-123687761D01*
X136960625Y-123389375D01*
X136469418Y-123061161D01*
X136036256Y-122975000D01*
X135743744Y-122975000D01*
X135310582Y-123061161D01*
X134819375Y-123389375D01*
X134620000Y-123687761D01*
X134420625Y-123389375D01*
X133929418Y-123061161D01*
X133496256Y-122975000D01*
X133203744Y-122975000D01*
X132770582Y-123061161D01*
X132279375Y-123389375D01*
X132080000Y-123687761D01*
X131880625Y-123389375D01*
X131389418Y-123061161D01*
X130956256Y-122975000D01*
X130663744Y-122975000D01*
X130230582Y-123061161D01*
X129739375Y-123389375D01*
X129540000Y-123687761D01*
X129340625Y-123389375D01*
X128849418Y-123061161D01*
X128416256Y-122975000D01*
X128123744Y-122975000D01*
X127690582Y-123061161D01*
X127199375Y-123389375D01*
X126986157Y-123708478D01*
X126925183Y-123578642D01*
X126496924Y-123188355D01*
X126086890Y-123018524D01*
X125857000Y-123139845D01*
X125857000Y-124333000D01*
X125877000Y-124333000D01*
X125877000Y-124587000D01*
X125857000Y-124587000D01*
X125857000Y-124607000D01*
X125603000Y-124607000D01*
X125603000Y-124587000D01*
X125583000Y-124587000D01*
X125583000Y-124333000D01*
X125603000Y-124333000D01*
X125603000Y-123139845D01*
X125373110Y-123018524D01*
X124963076Y-123188355D01*
X124534817Y-123578642D01*
X124473843Y-123708478D01*
X124260625Y-123389375D01*
X123769418Y-123061161D01*
X123336256Y-122975000D01*
X123043744Y-122975000D01*
X122610582Y-123061161D01*
X122119375Y-123389375D01*
X121920000Y-123687761D01*
X121720625Y-123389375D01*
X121229418Y-123061161D01*
X120796256Y-122975000D01*
X120503744Y-122975000D01*
X120070582Y-123061161D01*
X119579375Y-123389375D01*
X119380000Y-123687761D01*
X119180625Y-123389375D01*
X118689418Y-123061161D01*
X118256256Y-122975000D01*
X117963744Y-122975000D01*
X117530582Y-123061161D01*
X117039375Y-123389375D01*
X116711161Y-123880582D01*
X116595908Y-124460000D01*
X116711161Y-125039418D01*
X116714891Y-125045000D01*
X115857496Y-125045000D01*
X116345642Y-124556854D01*
X116713000Y-123669975D01*
X116713000Y-122710025D01*
X116345642Y-121823146D01*
X115666854Y-121144358D01*
X114779975Y-120777000D01*
X113820025Y-120777000D01*
X112933146Y-121144358D01*
X112445000Y-121632504D01*
X112445000Y-110814017D01*
X116285000Y-110814017D01*
X116285000Y-111185983D01*
X116427345Y-111529635D01*
X116690365Y-111792655D01*
X117034017Y-111935000D01*
X117405983Y-111935000D01*
X117749635Y-111792655D01*
X117807290Y-111735000D01*
X122345553Y-111735000D01*
X120545554Y-113535000D01*
X120464017Y-113535000D01*
X120120365Y-113677345D01*
X119857345Y-113940365D01*
X119715000Y-114284017D01*
X119715000Y-114655983D01*
X119857345Y-114999635D01*
X120120365Y-115262655D01*
X120464017Y-115405000D01*
X120835983Y-115405000D01*
X121179635Y-115262655D01*
X121442655Y-114999635D01*
X121585000Y-114655983D01*
X121585000Y-114574446D01*
X124424447Y-111735000D01*
X138332710Y-111735000D01*
X138390365Y-111792655D01*
X138734017Y-111935000D01*
X139105983Y-111935000D01*
X139449635Y-111792655D01*
X139505423Y-111736867D01*
X143237093Y-115468538D01*
X143278097Y-115529905D01*
X143521219Y-115692354D01*
X143635068Y-115715000D01*
X119314447Y-115715000D01*
X119045000Y-115445554D01*
X119045000Y-115364017D01*
X118902655Y-115020365D01*
X118639635Y-114757345D01*
X118295983Y-114615000D01*
X117924017Y-114615000D01*
X117580365Y-114757345D01*
X117317345Y-115020365D01*
X117175000Y-115364017D01*
X117175000Y-115735983D01*
X117317345Y-116079635D01*
X117580365Y-116342655D01*
X117924017Y-116485000D01*
X118005554Y-116485000D01*
X118439090Y-116918537D01*
X118480095Y-116979905D01*
X118723217Y-117142354D01*
X118937612Y-117185000D01*
X118937615Y-117185000D01*
X119009999Y-117199398D01*
X119082383Y-117185000D01*
X146035000Y-117185000D01*
X146035000Y-117485983D01*
X146177345Y-117829635D01*
X146440365Y-118092655D01*
X146784017Y-118235000D01*
X147155983Y-118235000D01*
X147499635Y-118092655D01*
X147557290Y-118035000D01*
X150632710Y-118035000D01*
X150690365Y-118092655D01*
X151034017Y-118235000D01*
X151405983Y-118235000D01*
X151749635Y-118092655D01*
X152012655Y-117829635D01*
X152155000Y-117485983D01*
X152155000Y-117185000D01*
X152832710Y-117185000D01*
X152890365Y-117242655D01*
X153234017Y-117385000D01*
X153605983Y-117385000D01*
X153949635Y-117242655D01*
X154212655Y-116979635D01*
X154355000Y-116635983D01*
X154355000Y-116264017D01*
X154212655Y-115920365D01*
X154027290Y-115735000D01*
X154432710Y-115735000D01*
X154490365Y-115792655D01*
X154834017Y-115935000D01*
X155205983Y-115935000D01*
X155549635Y-115792655D01*
X155812655Y-115529635D01*
X155955000Y-115185983D01*
X155955000Y-114814017D01*
X155824930Y-114500000D01*
X155955000Y-114185983D01*
X155955000Y-113814017D01*
X155812655Y-113470365D01*
X155549635Y-113207345D01*
X155205983Y-113065000D01*
X154834017Y-113065000D01*
X154490365Y-113207345D01*
X154432710Y-113265000D01*
X144674447Y-113265000D01*
X137340911Y-105931465D01*
X137299905Y-105870095D01*
X137056783Y-105707646D01*
X136842388Y-105665000D01*
X136842384Y-105665000D01*
X136770000Y-105650602D01*
X136697616Y-105665000D01*
X127807290Y-105665000D01*
X127749635Y-105607345D01*
X127405983Y-105465000D01*
X127034017Y-105465000D01*
X126690365Y-105607345D01*
X126427345Y-105870365D01*
X126285000Y-106214017D01*
X126285000Y-106585983D01*
X126425425Y-106925000D01*
X126285000Y-107264017D01*
X126285000Y-107635983D01*
X126427345Y-107979635D01*
X126690365Y-108242655D01*
X127034017Y-108385000D01*
X127405983Y-108385000D01*
X127749635Y-108242655D01*
X127807290Y-108185000D01*
X135953556Y-108185000D01*
X138033556Y-110265000D01*
X124192383Y-110265000D01*
X124119999Y-110250602D01*
X124047615Y-110265000D01*
X117807290Y-110265000D01*
X117749635Y-110207345D01*
X117405983Y-110065000D01*
X117034017Y-110065000D01*
X116690365Y-110207345D01*
X116427345Y-110470365D01*
X116285000Y-110814017D01*
X112445000Y-110814017D01*
X112445000Y-106967496D01*
X112933146Y-107455642D01*
X113820025Y-107823000D01*
X114779975Y-107823000D01*
X115666854Y-107455642D01*
X116345642Y-106776854D01*
X116713000Y-105889975D01*
X116713000Y-104930025D01*
X116345642Y-104043146D01*
X115857496Y-103555000D01*
X126874891Y-103555000D01*
X126871161Y-103560582D01*
X126871161Y-103560582D01*
G37*
X126871161Y-103560582D02*
X126755908Y-104140000D01*
X126871161Y-104719418D01*
X127199375Y-105210625D01*
X127690582Y-105538839D01*
X128123744Y-105625000D01*
X128416256Y-105625000D01*
X128849418Y-105538839D01*
X129340625Y-105210625D01*
X129540000Y-104912239D01*
X129739375Y-105210625D01*
X130230582Y-105538839D01*
X130663744Y-105625000D01*
X130956256Y-105625000D01*
X131389418Y-105538839D01*
X131880625Y-105210625D01*
X132080000Y-104912239D01*
X132279375Y-105210625D01*
X132770582Y-105538839D01*
X133203744Y-105625000D01*
X133496256Y-105625000D01*
X133929418Y-105538839D01*
X134420625Y-105210625D01*
X134620000Y-104912239D01*
X134819375Y-105210625D01*
X135310582Y-105538839D01*
X135743744Y-105625000D01*
X136036256Y-105625000D01*
X136469418Y-105538839D01*
X136960625Y-105210625D01*
X137160000Y-104912239D01*
X137359375Y-105210625D01*
X137850582Y-105538839D01*
X138283744Y-105625000D01*
X138576256Y-105625000D01*
X139009418Y-105538839D01*
X139500625Y-105210625D01*
X139700000Y-104912239D01*
X139899375Y-105210625D01*
X140390582Y-105538839D01*
X140823744Y-105625000D01*
X141116256Y-105625000D01*
X141549418Y-105538839D01*
X142040625Y-105210625D01*
X142240000Y-104912239D01*
X142439375Y-105210625D01*
X142930582Y-105538839D01*
X143363744Y-105625000D01*
X143656256Y-105625000D01*
X144089418Y-105538839D01*
X144580625Y-105210625D01*
X144780000Y-104912239D01*
X144979375Y-105210625D01*
X145470582Y-105538839D01*
X145903744Y-105625000D01*
X146196256Y-105625000D01*
X146629418Y-105538839D01*
X147120625Y-105210625D01*
X147320000Y-104912239D01*
X147519375Y-105210625D01*
X148010582Y-105538839D01*
X148443744Y-105625000D01*
X148736256Y-105625000D01*
X149169418Y-105538839D01*
X149660625Y-105210625D01*
X149860000Y-104912239D01*
X150059375Y-105210625D01*
X150550582Y-105538839D01*
X150983744Y-105625000D01*
X151276256Y-105625000D01*
X151709418Y-105538839D01*
X152200625Y-105210625D01*
X152400000Y-104912239D01*
X152599375Y-105210625D01*
X153090582Y-105538839D01*
X153523744Y-105625000D01*
X153816256Y-105625000D01*
X154249418Y-105538839D01*
X154740625Y-105210625D01*
X154752816Y-105192381D01*
X154761843Y-105237765D01*
X154902191Y-105447809D01*
X155112235Y-105588157D01*
X155360000Y-105637440D01*
X156868000Y-105637440D01*
X156868000Y-122975000D01*
X156495750Y-122975000D01*
X156337000Y-123133750D01*
X156337000Y-124333000D01*
X156357000Y-124333000D01*
X156357000Y-124587000D01*
X156337000Y-124587000D01*
X156337000Y-124607000D01*
X156083000Y-124607000D01*
X156083000Y-124587000D01*
X156063000Y-124587000D01*
X156063000Y-124333000D01*
X156083000Y-124333000D01*
X156083000Y-123133750D01*
X155924250Y-122975000D01*
X155233690Y-122975000D01*
X155000301Y-123071673D01*
X154821673Y-123250302D01*
X154755096Y-123411033D01*
X154740625Y-123389375D01*
X154249418Y-123061161D01*
X153816256Y-122975000D01*
X153523744Y-122975000D01*
X153090582Y-123061161D01*
X152599375Y-123389375D01*
X152400000Y-123687761D01*
X152200625Y-123389375D01*
X151709418Y-123061161D01*
X151276256Y-122975000D01*
X150983744Y-122975000D01*
X150550582Y-123061161D01*
X150059375Y-123389375D01*
X149860000Y-123687761D01*
X149660625Y-123389375D01*
X149169418Y-123061161D01*
X148736256Y-122975000D01*
X148443744Y-122975000D01*
X148010582Y-123061161D01*
X147519375Y-123389375D01*
X147320000Y-123687761D01*
X147120625Y-123389375D01*
X146629418Y-123061161D01*
X146196256Y-122975000D01*
X145903744Y-122975000D01*
X145470582Y-123061161D01*
X144979375Y-123389375D01*
X144780000Y-123687761D01*
X144580625Y-123389375D01*
X144089418Y-123061161D01*
X143656256Y-122975000D01*
X143363744Y-122975000D01*
X142930582Y-123061161D01*
X142439375Y-123389375D01*
X142240000Y-123687761D01*
X142040625Y-123389375D01*
X141549418Y-123061161D01*
X141116256Y-122975000D01*
X140823744Y-122975000D01*
X140390582Y-123061161D01*
X139899375Y-123389375D01*
X139700000Y-123687761D01*
X139500625Y-123389375D01*
X139009418Y-123061161D01*
X138576256Y-122975000D01*
X138283744Y-122975000D01*
X137850582Y-123061161D01*
X137359375Y-123389375D01*
X137160000Y-123687761D01*
X136960625Y-123389375D01*
X136469418Y-123061161D01*
X136036256Y-122975000D01*
X135743744Y-122975000D01*
X135310582Y-123061161D01*
X134819375Y-123389375D01*
X134620000Y-123687761D01*
X134420625Y-123389375D01*
X133929418Y-123061161D01*
X133496256Y-122975000D01*
X133203744Y-122975000D01*
X132770582Y-123061161D01*
X132279375Y-123389375D01*
X132080000Y-123687761D01*
X131880625Y-123389375D01*
X131389418Y-123061161D01*
X130956256Y-122975000D01*
X130663744Y-122975000D01*
X130230582Y-123061161D01*
X129739375Y-123389375D01*
X129540000Y-123687761D01*
X129340625Y-123389375D01*
X128849418Y-123061161D01*
X128416256Y-122975000D01*
X128123744Y-122975000D01*
X127690582Y-123061161D01*
X127199375Y-123389375D01*
X126986157Y-123708478D01*
X126925183Y-123578642D01*
X126496924Y-123188355D01*
X126086890Y-123018524D01*
X125857000Y-123139845D01*
X125857000Y-124333000D01*
X125877000Y-124333000D01*
X125877000Y-124587000D01*
X125857000Y-124587000D01*
X125857000Y-124607000D01*
X125603000Y-124607000D01*
X125603000Y-124587000D01*
X125583000Y-124587000D01*
X125583000Y-124333000D01*
X125603000Y-124333000D01*
X125603000Y-123139845D01*
X125373110Y-123018524D01*
X124963076Y-123188355D01*
X124534817Y-123578642D01*
X124473843Y-123708478D01*
X124260625Y-123389375D01*
X123769418Y-123061161D01*
X123336256Y-122975000D01*
X123043744Y-122975000D01*
X122610582Y-123061161D01*
X122119375Y-123389375D01*
X121920000Y-123687761D01*
X121720625Y-123389375D01*
X121229418Y-123061161D01*
X120796256Y-122975000D01*
X120503744Y-122975000D01*
X120070582Y-123061161D01*
X119579375Y-123389375D01*
X119380000Y-123687761D01*
X119180625Y-123389375D01*
X118689418Y-123061161D01*
X118256256Y-122975000D01*
X117963744Y-122975000D01*
X117530582Y-123061161D01*
X117039375Y-123389375D01*
X116711161Y-123880582D01*
X116595908Y-124460000D01*
X116711161Y-125039418D01*
X116714891Y-125045000D01*
X115857496Y-125045000D01*
X116345642Y-124556854D01*
X116713000Y-123669975D01*
X116713000Y-122710025D01*
X116345642Y-121823146D01*
X115666854Y-121144358D01*
X114779975Y-120777000D01*
X113820025Y-120777000D01*
X112933146Y-121144358D01*
X112445000Y-121632504D01*
X112445000Y-110814017D01*
X116285000Y-110814017D01*
X116285000Y-111185983D01*
X116427345Y-111529635D01*
X116690365Y-111792655D01*
X117034017Y-111935000D01*
X117405983Y-111935000D01*
X117749635Y-111792655D01*
X117807290Y-111735000D01*
X122345553Y-111735000D01*
X120545554Y-113535000D01*
X120464017Y-113535000D01*
X120120365Y-113677345D01*
X119857345Y-113940365D01*
X119715000Y-114284017D01*
X119715000Y-114655983D01*
X119857345Y-114999635D01*
X120120365Y-115262655D01*
X120464017Y-115405000D01*
X120835983Y-115405000D01*
X121179635Y-115262655D01*
X121442655Y-114999635D01*
X121585000Y-114655983D01*
X121585000Y-114574446D01*
X124424447Y-111735000D01*
X138332710Y-111735000D01*
X138390365Y-111792655D01*
X138734017Y-111935000D01*
X139105983Y-111935000D01*
X139449635Y-111792655D01*
X139505423Y-111736867D01*
X143237093Y-115468538D01*
X143278097Y-115529905D01*
X143521219Y-115692354D01*
X143635068Y-115715000D01*
X119314447Y-115715000D01*
X119045000Y-115445554D01*
X119045000Y-115364017D01*
X118902655Y-115020365D01*
X118639635Y-114757345D01*
X118295983Y-114615000D01*
X117924017Y-114615000D01*
X117580365Y-114757345D01*
X117317345Y-115020365D01*
X117175000Y-115364017D01*
X117175000Y-115735983D01*
X117317345Y-116079635D01*
X117580365Y-116342655D01*
X117924017Y-116485000D01*
X118005554Y-116485000D01*
X118439090Y-116918537D01*
X118480095Y-116979905D01*
X118723217Y-117142354D01*
X118937612Y-117185000D01*
X118937615Y-117185000D01*
X119009999Y-117199398D01*
X119082383Y-117185000D01*
X146035000Y-117185000D01*
X146035000Y-117485983D01*
X146177345Y-117829635D01*
X146440365Y-118092655D01*
X146784017Y-118235000D01*
X147155983Y-118235000D01*
X147499635Y-118092655D01*
X147557290Y-118035000D01*
X150632710Y-118035000D01*
X150690365Y-118092655D01*
X151034017Y-118235000D01*
X151405983Y-118235000D01*
X151749635Y-118092655D01*
X152012655Y-117829635D01*
X152155000Y-117485983D01*
X152155000Y-117185000D01*
X152832710Y-117185000D01*
X152890365Y-117242655D01*
X153234017Y-117385000D01*
X153605983Y-117385000D01*
X153949635Y-117242655D01*
X154212655Y-116979635D01*
X154355000Y-116635983D01*
X154355000Y-116264017D01*
X154212655Y-115920365D01*
X154027290Y-115735000D01*
X154432710Y-115735000D01*
X154490365Y-115792655D01*
X154834017Y-115935000D01*
X155205983Y-115935000D01*
X155549635Y-115792655D01*
X155812655Y-115529635D01*
X155955000Y-115185983D01*
X155955000Y-114814017D01*
X155824930Y-114500000D01*
X155955000Y-114185983D01*
X155955000Y-113814017D01*
X155812655Y-113470365D01*
X155549635Y-113207345D01*
X155205983Y-113065000D01*
X154834017Y-113065000D01*
X154490365Y-113207345D01*
X154432710Y-113265000D01*
X144674447Y-113265000D01*
X137340911Y-105931465D01*
X137299905Y-105870095D01*
X137056783Y-105707646D01*
X136842388Y-105665000D01*
X136842384Y-105665000D01*
X136770000Y-105650602D01*
X136697616Y-105665000D01*
X127807290Y-105665000D01*
X127749635Y-105607345D01*
X127405983Y-105465000D01*
X127034017Y-105465000D01*
X126690365Y-105607345D01*
X126427345Y-105870365D01*
X126285000Y-106214017D01*
X126285000Y-106585983D01*
X126425425Y-106925000D01*
X126285000Y-107264017D01*
X126285000Y-107635983D01*
X126427345Y-107979635D01*
X126690365Y-108242655D01*
X127034017Y-108385000D01*
X127405983Y-108385000D01*
X127749635Y-108242655D01*
X127807290Y-108185000D01*
X135953556Y-108185000D01*
X138033556Y-110265000D01*
X124192383Y-110265000D01*
X124119999Y-110250602D01*
X124047615Y-110265000D01*
X117807290Y-110265000D01*
X117749635Y-110207345D01*
X117405983Y-110065000D01*
X117034017Y-110065000D01*
X116690365Y-110207345D01*
X116427345Y-110470365D01*
X116285000Y-110814017D01*
X112445000Y-110814017D01*
X112445000Y-106967496D01*
X112933146Y-107455642D01*
X113820025Y-107823000D01*
X114779975Y-107823000D01*
X115666854Y-107455642D01*
X116345642Y-106776854D01*
X116713000Y-105889975D01*
X116713000Y-104930025D01*
X116345642Y-104043146D01*
X115857496Y-103555000D01*
X126874891Y-103555000D01*
X126871161Y-103560582D01*
G04 #@! TD*
M02*
