G04 #@! TF.GenerationSoftware,KiCad,Pcbnew,(5.0.1)-3*
G04 #@! TF.CreationDate,2018-11-27T12:57:36+01:00*
G04 #@! TF.ProjectId,Adafruit_FeatherWing,41646166727569745F46656174686572,rev?*
G04 #@! TF.SameCoordinates,Original*
G04 #@! TF.FileFunction,Legend,Top*
G04 #@! TF.FilePolarity,Positive*
%FSLAX46Y46*%
G04 Gerber Fmt 4.6, Leading zero omitted, Abs format (unit mm)*
G04 Created by KiCad (PCBNEW (5.0.1)-3) date 27.11.2018 12:57:36*
%MOMM*%
%LPD*%
G01*
G04 APERTURE LIST*
%ADD10C,0.200000*%
%ADD11C,0.175000*%
%ADD12C,0.150000*%
%ADD13C,0.120000*%
%ADD14C,0.100000*%
%ADD15C,0.127000*%
%ADD16C,0.050000*%
G04 APERTURE END LIST*
D10*
X127817619Y-105778095D02*
X128817619Y-105778095D01*
X128817619Y-106159047D01*
X128770000Y-106254285D01*
X128722380Y-106301904D01*
X128627142Y-106349523D01*
X128484285Y-106349523D01*
X128389047Y-106301904D01*
X128341428Y-106254285D01*
X128293809Y-106159047D01*
X128293809Y-105778095D01*
X127912857Y-106778095D02*
X127865238Y-106825714D01*
X127817619Y-106778095D01*
X127865238Y-106730476D01*
X127912857Y-106778095D01*
X127817619Y-106778095D01*
X128817619Y-107444761D02*
X128817619Y-107540000D01*
X128770000Y-107635238D01*
X128722380Y-107682857D01*
X128627142Y-107730476D01*
X128436666Y-107778095D01*
X128198571Y-107778095D01*
X128008095Y-107730476D01*
X127912857Y-107682857D01*
X127865238Y-107635238D01*
X127817619Y-107540000D01*
X127817619Y-107444761D01*
X127865238Y-107349523D01*
X127912857Y-107301904D01*
X128008095Y-107254285D01*
X128198571Y-107206666D01*
X128436666Y-107206666D01*
X128627142Y-107254285D01*
X128722380Y-107301904D01*
X128770000Y-107349523D01*
X128817619Y-107444761D01*
X128484285Y-108635238D02*
X127817619Y-108635238D01*
X128865238Y-108397142D02*
X128150952Y-108159047D01*
X128150952Y-108778095D01*
X130357619Y-105778095D02*
X131357619Y-105778095D01*
X131357619Y-106159047D01*
X131310000Y-106254285D01*
X131262380Y-106301904D01*
X131167142Y-106349523D01*
X131024285Y-106349523D01*
X130929047Y-106301904D01*
X130881428Y-106254285D01*
X130833809Y-106159047D01*
X130833809Y-105778095D01*
X130452857Y-106778095D02*
X130405238Y-106825714D01*
X130357619Y-106778095D01*
X130405238Y-106730476D01*
X130452857Y-106778095D01*
X130357619Y-106778095D01*
X131357619Y-107444761D02*
X131357619Y-107540000D01*
X131310000Y-107635238D01*
X131262380Y-107682857D01*
X131167142Y-107730476D01*
X130976666Y-107778095D01*
X130738571Y-107778095D01*
X130548095Y-107730476D01*
X130452857Y-107682857D01*
X130405238Y-107635238D01*
X130357619Y-107540000D01*
X130357619Y-107444761D01*
X130405238Y-107349523D01*
X130452857Y-107301904D01*
X130548095Y-107254285D01*
X130738571Y-107206666D01*
X130976666Y-107206666D01*
X131167142Y-107254285D01*
X131262380Y-107301904D01*
X131310000Y-107349523D01*
X131357619Y-107444761D01*
X131357619Y-108111428D02*
X131357619Y-108730476D01*
X130976666Y-108397142D01*
X130976666Y-108540000D01*
X130929047Y-108635238D01*
X130881428Y-108682857D01*
X130786190Y-108730476D01*
X130548095Y-108730476D01*
X130452857Y-108682857D01*
X130405238Y-108635238D01*
X130357619Y-108540000D01*
X130357619Y-108254285D01*
X130405238Y-108159047D01*
X130452857Y-108111428D01*
X132897619Y-105778095D02*
X133897619Y-105778095D01*
X133897619Y-106159047D01*
X133850000Y-106254285D01*
X133802380Y-106301904D01*
X133707142Y-106349523D01*
X133564285Y-106349523D01*
X133469047Y-106301904D01*
X133421428Y-106254285D01*
X133373809Y-106159047D01*
X133373809Y-105778095D01*
X132992857Y-106778095D02*
X132945238Y-106825714D01*
X132897619Y-106778095D01*
X132945238Y-106730476D01*
X132992857Y-106778095D01*
X132897619Y-106778095D01*
X133897619Y-107444761D02*
X133897619Y-107540000D01*
X133850000Y-107635238D01*
X133802380Y-107682857D01*
X133707142Y-107730476D01*
X133516666Y-107778095D01*
X133278571Y-107778095D01*
X133088095Y-107730476D01*
X132992857Y-107682857D01*
X132945238Y-107635238D01*
X132897619Y-107540000D01*
X132897619Y-107444761D01*
X132945238Y-107349523D01*
X132992857Y-107301904D01*
X133088095Y-107254285D01*
X133278571Y-107206666D01*
X133516666Y-107206666D01*
X133707142Y-107254285D01*
X133802380Y-107301904D01*
X133850000Y-107349523D01*
X133897619Y-107444761D01*
X133802380Y-108159047D02*
X133850000Y-108206666D01*
X133897619Y-108301904D01*
X133897619Y-108540000D01*
X133850000Y-108635238D01*
X133802380Y-108682857D01*
X133707142Y-108730476D01*
X133611904Y-108730476D01*
X133469047Y-108682857D01*
X132897619Y-108111428D01*
X132897619Y-108730476D01*
X135437619Y-105778095D02*
X136437619Y-105778095D01*
X136437619Y-106159047D01*
X136390000Y-106254285D01*
X136342380Y-106301904D01*
X136247142Y-106349523D01*
X136104285Y-106349523D01*
X136009047Y-106301904D01*
X135961428Y-106254285D01*
X135913809Y-106159047D01*
X135913809Y-105778095D01*
X135532857Y-106778095D02*
X135485238Y-106825714D01*
X135437619Y-106778095D01*
X135485238Y-106730476D01*
X135532857Y-106778095D01*
X135437619Y-106778095D01*
X136437619Y-107444761D02*
X136437619Y-107540000D01*
X136390000Y-107635238D01*
X136342380Y-107682857D01*
X136247142Y-107730476D01*
X136056666Y-107778095D01*
X135818571Y-107778095D01*
X135628095Y-107730476D01*
X135532857Y-107682857D01*
X135485238Y-107635238D01*
X135437619Y-107540000D01*
X135437619Y-107444761D01*
X135485238Y-107349523D01*
X135532857Y-107301904D01*
X135628095Y-107254285D01*
X135818571Y-107206666D01*
X136056666Y-107206666D01*
X136247142Y-107254285D01*
X136342380Y-107301904D01*
X136390000Y-107349523D01*
X136437619Y-107444761D01*
X135437619Y-108730476D02*
X135437619Y-108159047D01*
X135437619Y-108444761D02*
X136437619Y-108444761D01*
X136294761Y-108349523D01*
X136199523Y-108254285D01*
X136151904Y-108159047D01*
X137977619Y-105778095D02*
X138977619Y-105778095D01*
X138977619Y-106159047D01*
X138930000Y-106254285D01*
X138882380Y-106301904D01*
X138787142Y-106349523D01*
X138644285Y-106349523D01*
X138549047Y-106301904D01*
X138501428Y-106254285D01*
X138453809Y-106159047D01*
X138453809Y-105778095D01*
X138072857Y-106778095D02*
X138025238Y-106825714D01*
X137977619Y-106778095D01*
X138025238Y-106730476D01*
X138072857Y-106778095D01*
X137977619Y-106778095D01*
X138977619Y-107444761D02*
X138977619Y-107540000D01*
X138930000Y-107635238D01*
X138882380Y-107682857D01*
X138787142Y-107730476D01*
X138596666Y-107778095D01*
X138358571Y-107778095D01*
X138168095Y-107730476D01*
X138072857Y-107682857D01*
X138025238Y-107635238D01*
X137977619Y-107540000D01*
X137977619Y-107444761D01*
X138025238Y-107349523D01*
X138072857Y-107301904D01*
X138168095Y-107254285D01*
X138358571Y-107206666D01*
X138596666Y-107206666D01*
X138787142Y-107254285D01*
X138882380Y-107301904D01*
X138930000Y-107349523D01*
X138977619Y-107444761D01*
X138977619Y-108397142D02*
X138977619Y-108492380D01*
X138930000Y-108587619D01*
X138882380Y-108635238D01*
X138787142Y-108682857D01*
X138596666Y-108730476D01*
X138358571Y-108730476D01*
X138168095Y-108682857D01*
X138072857Y-108635238D01*
X138025238Y-108587619D01*
X137977619Y-108492380D01*
X137977619Y-108397142D01*
X138025238Y-108301904D01*
X138072857Y-108254285D01*
X138168095Y-108206666D01*
X138358571Y-108159047D01*
X138596666Y-108159047D01*
X138787142Y-108206666D01*
X138882380Y-108254285D01*
X138930000Y-108301904D01*
X138977619Y-108397142D01*
X140517619Y-105838095D02*
X141517619Y-105838095D01*
X141517619Y-106219047D01*
X141470000Y-106314285D01*
X141422380Y-106361904D01*
X141327142Y-106409523D01*
X141184285Y-106409523D01*
X141089047Y-106361904D01*
X141041428Y-106314285D01*
X140993809Y-106219047D01*
X140993809Y-105838095D01*
X140612857Y-106838095D02*
X140565238Y-106885714D01*
X140517619Y-106838095D01*
X140565238Y-106790476D01*
X140612857Y-106838095D01*
X140517619Y-106838095D01*
X141517619Y-107219047D02*
X141517619Y-107838095D01*
X141136666Y-107504761D01*
X141136666Y-107647619D01*
X141089047Y-107742857D01*
X141041428Y-107790476D01*
X140946190Y-107838095D01*
X140708095Y-107838095D01*
X140612857Y-107790476D01*
X140565238Y-107742857D01*
X140517619Y-107647619D01*
X140517619Y-107361904D01*
X140565238Y-107266666D01*
X140612857Y-107219047D01*
X140517619Y-108790476D02*
X140517619Y-108219047D01*
X140517619Y-108504761D02*
X141517619Y-108504761D01*
X141374761Y-108409523D01*
X141279523Y-108314285D01*
X141231904Y-108219047D01*
X143057619Y-105838095D02*
X144057619Y-105838095D01*
X144057619Y-106219047D01*
X144010000Y-106314285D01*
X143962380Y-106361904D01*
X143867142Y-106409523D01*
X143724285Y-106409523D01*
X143629047Y-106361904D01*
X143581428Y-106314285D01*
X143533809Y-106219047D01*
X143533809Y-105838095D01*
X143152857Y-106838095D02*
X143105238Y-106885714D01*
X143057619Y-106838095D01*
X143105238Y-106790476D01*
X143152857Y-106838095D01*
X143057619Y-106838095D01*
X144057619Y-107219047D02*
X144057619Y-107838095D01*
X143676666Y-107504761D01*
X143676666Y-107647619D01*
X143629047Y-107742857D01*
X143581428Y-107790476D01*
X143486190Y-107838095D01*
X143248095Y-107838095D01*
X143152857Y-107790476D01*
X143105238Y-107742857D01*
X143057619Y-107647619D01*
X143057619Y-107361904D01*
X143105238Y-107266666D01*
X143152857Y-107219047D01*
X144057619Y-108457142D02*
X144057619Y-108552380D01*
X144010000Y-108647619D01*
X143962380Y-108695238D01*
X143867142Y-108742857D01*
X143676666Y-108790476D01*
X143438571Y-108790476D01*
X143248095Y-108742857D01*
X143152857Y-108695238D01*
X143105238Y-108647619D01*
X143057619Y-108552380D01*
X143057619Y-108457142D01*
X143105238Y-108361904D01*
X143152857Y-108314285D01*
X143248095Y-108266666D01*
X143438571Y-108219047D01*
X143676666Y-108219047D01*
X143867142Y-108266666D01*
X143962380Y-108314285D01*
X144010000Y-108361904D01*
X144057619Y-108457142D01*
X145597619Y-105838095D02*
X146597619Y-105838095D01*
X146597619Y-106219047D01*
X146550000Y-106314285D01*
X146502380Y-106361904D01*
X146407142Y-106409523D01*
X146264285Y-106409523D01*
X146169047Y-106361904D01*
X146121428Y-106314285D01*
X146073809Y-106219047D01*
X146073809Y-105838095D01*
X145692857Y-106838095D02*
X145645238Y-106885714D01*
X145597619Y-106838095D01*
X145645238Y-106790476D01*
X145692857Y-106838095D01*
X145597619Y-106838095D01*
X146502380Y-107266666D02*
X146550000Y-107314285D01*
X146597619Y-107409523D01*
X146597619Y-107647619D01*
X146550000Y-107742857D01*
X146502380Y-107790476D01*
X146407142Y-107838095D01*
X146311904Y-107838095D01*
X146169047Y-107790476D01*
X145597619Y-107219047D01*
X145597619Y-107838095D01*
X145597619Y-108314285D02*
X145597619Y-108504761D01*
X145645238Y-108600000D01*
X145692857Y-108647619D01*
X145835714Y-108742857D01*
X146026190Y-108790476D01*
X146407142Y-108790476D01*
X146502380Y-108742857D01*
X146550000Y-108695238D01*
X146597619Y-108600000D01*
X146597619Y-108409523D01*
X146550000Y-108314285D01*
X146502380Y-108266666D01*
X146407142Y-108219047D01*
X146169047Y-108219047D01*
X146073809Y-108266666D01*
X146026190Y-108314285D01*
X145978571Y-108409523D01*
X145978571Y-108600000D01*
X146026190Y-108695238D01*
X146073809Y-108742857D01*
X146169047Y-108790476D01*
X148137619Y-105838095D02*
X149137619Y-105838095D01*
X149137619Y-106219047D01*
X149090000Y-106314285D01*
X149042380Y-106361904D01*
X148947142Y-106409523D01*
X148804285Y-106409523D01*
X148709047Y-106361904D01*
X148661428Y-106314285D01*
X148613809Y-106219047D01*
X148613809Y-105838095D01*
X148232857Y-106838095D02*
X148185238Y-106885714D01*
X148137619Y-106838095D01*
X148185238Y-106790476D01*
X148232857Y-106838095D01*
X148137619Y-106838095D01*
X149042380Y-107266666D02*
X149090000Y-107314285D01*
X149137619Y-107409523D01*
X149137619Y-107647619D01*
X149090000Y-107742857D01*
X149042380Y-107790476D01*
X148947142Y-107838095D01*
X148851904Y-107838095D01*
X148709047Y-107790476D01*
X148137619Y-107219047D01*
X148137619Y-107838095D01*
X148709047Y-108409523D02*
X148756666Y-108314285D01*
X148804285Y-108266666D01*
X148899523Y-108219047D01*
X148947142Y-108219047D01*
X149042380Y-108266666D01*
X149090000Y-108314285D01*
X149137619Y-108409523D01*
X149137619Y-108600000D01*
X149090000Y-108695238D01*
X149042380Y-108742857D01*
X148947142Y-108790476D01*
X148899523Y-108790476D01*
X148804285Y-108742857D01*
X148756666Y-108695238D01*
X148709047Y-108600000D01*
X148709047Y-108409523D01*
X148661428Y-108314285D01*
X148613809Y-108266666D01*
X148518571Y-108219047D01*
X148328095Y-108219047D01*
X148232857Y-108266666D01*
X148185238Y-108314285D01*
X148137619Y-108409523D01*
X148137619Y-108600000D01*
X148185238Y-108695238D01*
X148232857Y-108742857D01*
X148328095Y-108790476D01*
X148518571Y-108790476D01*
X148613809Y-108742857D01*
X148661428Y-108695238D01*
X148709047Y-108600000D01*
X150677619Y-105838095D02*
X151677619Y-105838095D01*
X151677619Y-106219047D01*
X151630000Y-106314285D01*
X151582380Y-106361904D01*
X151487142Y-106409523D01*
X151344285Y-106409523D01*
X151249047Y-106361904D01*
X151201428Y-106314285D01*
X151153809Y-106219047D01*
X151153809Y-105838095D01*
X150772857Y-106838095D02*
X150725238Y-106885714D01*
X150677619Y-106838095D01*
X150725238Y-106790476D01*
X150772857Y-106838095D01*
X150677619Y-106838095D01*
X151582380Y-107266666D02*
X151630000Y-107314285D01*
X151677619Y-107409523D01*
X151677619Y-107647619D01*
X151630000Y-107742857D01*
X151582380Y-107790476D01*
X151487142Y-107838095D01*
X151391904Y-107838095D01*
X151249047Y-107790476D01*
X150677619Y-107219047D01*
X150677619Y-107838095D01*
X151677619Y-108171428D02*
X151677619Y-108838095D01*
X150677619Y-108409523D01*
X153217619Y-105838095D02*
X154217619Y-105838095D01*
X154217619Y-106219047D01*
X154170000Y-106314285D01*
X154122380Y-106361904D01*
X154027142Y-106409523D01*
X153884285Y-106409523D01*
X153789047Y-106361904D01*
X153741428Y-106314285D01*
X153693809Y-106219047D01*
X153693809Y-105838095D01*
X153312857Y-106838095D02*
X153265238Y-106885714D01*
X153217619Y-106838095D01*
X153265238Y-106790476D01*
X153312857Y-106838095D01*
X153217619Y-106838095D01*
X154122380Y-107266666D02*
X154170000Y-107314285D01*
X154217619Y-107409523D01*
X154217619Y-107647619D01*
X154170000Y-107742857D01*
X154122380Y-107790476D01*
X154027142Y-107838095D01*
X153931904Y-107838095D01*
X153789047Y-107790476D01*
X153217619Y-107219047D01*
X153217619Y-107838095D01*
X154217619Y-108695238D02*
X154217619Y-108504761D01*
X154170000Y-108409523D01*
X154122380Y-108361904D01*
X153979523Y-108266666D01*
X153789047Y-108219047D01*
X153408095Y-108219047D01*
X153312857Y-108266666D01*
X153265238Y-108314285D01*
X153217619Y-108409523D01*
X153217619Y-108600000D01*
X153265238Y-108695238D01*
X153312857Y-108742857D01*
X153408095Y-108790476D01*
X153646190Y-108790476D01*
X153741428Y-108742857D01*
X153789047Y-108695238D01*
X153836666Y-108600000D01*
X153836666Y-108409523D01*
X153789047Y-108314285D01*
X153741428Y-108266666D01*
X153646190Y-108219047D01*
X155757619Y-105838095D02*
X156757619Y-105838095D01*
X156757619Y-106219047D01*
X156710000Y-106314285D01*
X156662380Y-106361904D01*
X156567142Y-106409523D01*
X156424285Y-106409523D01*
X156329047Y-106361904D01*
X156281428Y-106314285D01*
X156233809Y-106219047D01*
X156233809Y-105838095D01*
X155852857Y-106838095D02*
X155805238Y-106885714D01*
X155757619Y-106838095D01*
X155805238Y-106790476D01*
X155852857Y-106838095D01*
X155757619Y-106838095D01*
X156662380Y-107266666D02*
X156710000Y-107314285D01*
X156757619Y-107409523D01*
X156757619Y-107647619D01*
X156710000Y-107742857D01*
X156662380Y-107790476D01*
X156567142Y-107838095D01*
X156471904Y-107838095D01*
X156329047Y-107790476D01*
X155757619Y-107219047D01*
X155757619Y-107838095D01*
X156757619Y-108742857D02*
X156757619Y-108266666D01*
X156281428Y-108219047D01*
X156329047Y-108266666D01*
X156376666Y-108361904D01*
X156376666Y-108600000D01*
X156329047Y-108695238D01*
X156281428Y-108742857D01*
X156186190Y-108790476D01*
X155948095Y-108790476D01*
X155852857Y-108742857D01*
X155805238Y-108695238D01*
X155757619Y-108600000D01*
X155757619Y-108361904D01*
X155805238Y-108266666D01*
X155852857Y-108219047D01*
X156710000Y-120774285D02*
X156757619Y-120679047D01*
X156757619Y-120536190D01*
X156710000Y-120393333D01*
X156614761Y-120298095D01*
X156519523Y-120250476D01*
X156329047Y-120202857D01*
X156186190Y-120202857D01*
X155995714Y-120250476D01*
X155900476Y-120298095D01*
X155805238Y-120393333D01*
X155757619Y-120536190D01*
X155757619Y-120631428D01*
X155805238Y-120774285D01*
X155852857Y-120821904D01*
X156186190Y-120821904D01*
X156186190Y-120631428D01*
X155757619Y-121250476D02*
X156757619Y-121250476D01*
X155757619Y-121821904D01*
X156757619Y-121821904D01*
X155757619Y-122298095D02*
X156757619Y-122298095D01*
X156757619Y-122536190D01*
X156710000Y-122679047D01*
X156614761Y-122774285D01*
X156519523Y-122821904D01*
X156329047Y-122869523D01*
X156186190Y-122869523D01*
X155995714Y-122821904D01*
X155900476Y-122774285D01*
X155805238Y-122679047D01*
X155757619Y-122536190D01*
X155757619Y-122298095D01*
D11*
X153386666Y-119976250D02*
X153353333Y-120076250D01*
X153353333Y-120242916D01*
X153386666Y-120309583D01*
X153420000Y-120342916D01*
X153486666Y-120376250D01*
X153553333Y-120376250D01*
X153620000Y-120342916D01*
X153653333Y-120309583D01*
X153686666Y-120242916D01*
X153720000Y-120109583D01*
X153753333Y-120042916D01*
X153786666Y-120009583D01*
X153853333Y-119976250D01*
X153920000Y-119976250D01*
X153986666Y-120009583D01*
X154020000Y-120042916D01*
X154053333Y-120109583D01*
X154053333Y-120276250D01*
X154020000Y-120376250D01*
X154053333Y-120609583D02*
X153353333Y-120776250D01*
X153853333Y-120909583D01*
X153353333Y-121042916D01*
X154053333Y-121209583D01*
X153353333Y-121476250D02*
X154053333Y-121476250D01*
X154053333Y-121642916D01*
X154020000Y-121742916D01*
X153953333Y-121809583D01*
X153886666Y-121842916D01*
X153753333Y-121876250D01*
X153653333Y-121876250D01*
X153520000Y-121842916D01*
X153453333Y-121809583D01*
X153386666Y-121742916D01*
X153353333Y-121642916D01*
X153353333Y-121476250D01*
X153353333Y-122176250D02*
X154053333Y-122176250D01*
X154053333Y-122642916D02*
X154053333Y-122776250D01*
X154020000Y-122842916D01*
X153953333Y-122909583D01*
X153820000Y-122942916D01*
X153586666Y-122942916D01*
X153453333Y-122909583D01*
X153386666Y-122842916D01*
X153353333Y-122776250D01*
X153353333Y-122642916D01*
X153386666Y-122576250D01*
X153453333Y-122509583D01*
X153586666Y-122476250D01*
X153820000Y-122476250D01*
X153953333Y-122509583D01*
X154020000Y-122576250D01*
X154053333Y-122642916D01*
D12*
X150887142Y-119663928D02*
X150858571Y-119749642D01*
X150858571Y-119892500D01*
X150887142Y-119949642D01*
X150915714Y-119978214D01*
X150972857Y-120006785D01*
X151030000Y-120006785D01*
X151087142Y-119978214D01*
X151115714Y-119949642D01*
X151144285Y-119892500D01*
X151172857Y-119778214D01*
X151201428Y-119721071D01*
X151230000Y-119692500D01*
X151287142Y-119663928D01*
X151344285Y-119663928D01*
X151401428Y-119692500D01*
X151430000Y-119721071D01*
X151458571Y-119778214D01*
X151458571Y-119921071D01*
X151430000Y-120006785D01*
X151458571Y-120206785D02*
X150858571Y-120349642D01*
X151287142Y-120463928D01*
X150858571Y-120578214D01*
X151458571Y-120721071D01*
X150858571Y-120949642D02*
X151458571Y-120949642D01*
X151458571Y-121092500D01*
X151430000Y-121178214D01*
X151372857Y-121235357D01*
X151315714Y-121263928D01*
X151201428Y-121292500D01*
X151115714Y-121292500D01*
X151001428Y-121263928D01*
X150944285Y-121235357D01*
X150887142Y-121178214D01*
X150858571Y-121092500D01*
X150858571Y-120949642D01*
X150915714Y-121892500D02*
X150887142Y-121863928D01*
X150858571Y-121778214D01*
X150858571Y-121721071D01*
X150887142Y-121635357D01*
X150944285Y-121578214D01*
X151001428Y-121549642D01*
X151115714Y-121521071D01*
X151201428Y-121521071D01*
X151315714Y-121549642D01*
X151372857Y-121578214D01*
X151430000Y-121635357D01*
X151458571Y-121721071D01*
X151458571Y-121778214D01*
X151430000Y-121863928D01*
X151401428Y-121892500D01*
X150858571Y-122435357D02*
X150858571Y-122149642D01*
X151458571Y-122149642D01*
X150858571Y-122635357D02*
X151458571Y-122635357D01*
X150858571Y-122978214D02*
X151201428Y-122721071D01*
X151458571Y-122978214D02*
X151115714Y-122635357D01*
D10*
X148137619Y-119917142D02*
X149137619Y-119917142D01*
X149137619Y-120298095D01*
X149090000Y-120393333D01*
X149042380Y-120440952D01*
X148947142Y-120488571D01*
X148804285Y-120488571D01*
X148709047Y-120440952D01*
X148661428Y-120393333D01*
X148613809Y-120298095D01*
X148613809Y-119917142D01*
X148232857Y-120917142D02*
X148185238Y-120964761D01*
X148137619Y-120917142D01*
X148185238Y-120869523D01*
X148232857Y-120917142D01*
X148137619Y-120917142D01*
X149042380Y-121345714D02*
X149090000Y-121393333D01*
X149137619Y-121488571D01*
X149137619Y-121726666D01*
X149090000Y-121821904D01*
X149042380Y-121869523D01*
X148947142Y-121917142D01*
X148851904Y-121917142D01*
X148709047Y-121869523D01*
X148137619Y-121298095D01*
X148137619Y-121917142D01*
X148804285Y-122774285D02*
X148137619Y-122774285D01*
X149185238Y-122536190D02*
X148470952Y-122298095D01*
X148470952Y-122917142D01*
X145597619Y-119917142D02*
X146597619Y-119917142D01*
X146597619Y-120298095D01*
X146550000Y-120393333D01*
X146502380Y-120440952D01*
X146407142Y-120488571D01*
X146264285Y-120488571D01*
X146169047Y-120440952D01*
X146121428Y-120393333D01*
X146073809Y-120298095D01*
X146073809Y-119917142D01*
X145692857Y-120917142D02*
X145645238Y-120964761D01*
X145597619Y-120917142D01*
X145645238Y-120869523D01*
X145692857Y-120917142D01*
X145597619Y-120917142D01*
X146502380Y-121345714D02*
X146550000Y-121393333D01*
X146597619Y-121488571D01*
X146597619Y-121726666D01*
X146550000Y-121821904D01*
X146502380Y-121869523D01*
X146407142Y-121917142D01*
X146311904Y-121917142D01*
X146169047Y-121869523D01*
X145597619Y-121298095D01*
X145597619Y-121917142D01*
X146597619Y-122250476D02*
X146597619Y-122869523D01*
X146216666Y-122536190D01*
X146216666Y-122679047D01*
X146169047Y-122774285D01*
X146121428Y-122821904D01*
X146026190Y-122869523D01*
X145788095Y-122869523D01*
X145692857Y-122821904D01*
X145645238Y-122774285D01*
X145597619Y-122679047D01*
X145597619Y-122393333D01*
X145645238Y-122298095D01*
X145692857Y-122250476D01*
X143057619Y-119917142D02*
X144057619Y-119917142D01*
X144057619Y-120298095D01*
X144010000Y-120393333D01*
X143962380Y-120440952D01*
X143867142Y-120488571D01*
X143724285Y-120488571D01*
X143629047Y-120440952D01*
X143581428Y-120393333D01*
X143533809Y-120298095D01*
X143533809Y-119917142D01*
X143152857Y-120917142D02*
X143105238Y-120964761D01*
X143057619Y-120917142D01*
X143105238Y-120869523D01*
X143152857Y-120917142D01*
X143057619Y-120917142D01*
X143962380Y-121345714D02*
X144010000Y-121393333D01*
X144057619Y-121488571D01*
X144057619Y-121726666D01*
X144010000Y-121821904D01*
X143962380Y-121869523D01*
X143867142Y-121917142D01*
X143771904Y-121917142D01*
X143629047Y-121869523D01*
X143057619Y-121298095D01*
X143057619Y-121917142D01*
X143962380Y-122298095D02*
X144010000Y-122345714D01*
X144057619Y-122440952D01*
X144057619Y-122679047D01*
X144010000Y-122774285D01*
X143962380Y-122821904D01*
X143867142Y-122869523D01*
X143771904Y-122869523D01*
X143629047Y-122821904D01*
X143057619Y-122250476D01*
X143057619Y-122869523D01*
X140517619Y-119917142D02*
X141517619Y-119917142D01*
X141517619Y-120298095D01*
X141470000Y-120393333D01*
X141422380Y-120440952D01*
X141327142Y-120488571D01*
X141184285Y-120488571D01*
X141089047Y-120440952D01*
X141041428Y-120393333D01*
X140993809Y-120298095D01*
X140993809Y-119917142D01*
X140612857Y-120917142D02*
X140565238Y-120964761D01*
X140517619Y-120917142D01*
X140565238Y-120869523D01*
X140612857Y-120917142D01*
X140517619Y-120917142D01*
X141422380Y-121345714D02*
X141470000Y-121393333D01*
X141517619Y-121488571D01*
X141517619Y-121726666D01*
X141470000Y-121821904D01*
X141422380Y-121869523D01*
X141327142Y-121917142D01*
X141231904Y-121917142D01*
X141089047Y-121869523D01*
X140517619Y-121298095D01*
X140517619Y-121917142D01*
X141517619Y-122536190D02*
X141517619Y-122631428D01*
X141470000Y-122726666D01*
X141422380Y-122774285D01*
X141327142Y-122821904D01*
X141136666Y-122869523D01*
X140898571Y-122869523D01*
X140708095Y-122821904D01*
X140612857Y-122774285D01*
X140565238Y-122726666D01*
X140517619Y-122631428D01*
X140517619Y-122536190D01*
X140565238Y-122440952D01*
X140612857Y-122393333D01*
X140708095Y-122345714D01*
X140898571Y-122298095D01*
X141136666Y-122298095D01*
X141327142Y-122345714D01*
X141422380Y-122393333D01*
X141470000Y-122440952D01*
X141517619Y-122536190D01*
X137977619Y-119917142D02*
X138977619Y-119917142D01*
X138977619Y-120298095D01*
X138930000Y-120393333D01*
X138882380Y-120440952D01*
X138787142Y-120488571D01*
X138644285Y-120488571D01*
X138549047Y-120440952D01*
X138501428Y-120393333D01*
X138453809Y-120298095D01*
X138453809Y-119917142D01*
X138072857Y-120917142D02*
X138025238Y-120964761D01*
X137977619Y-120917142D01*
X138025238Y-120869523D01*
X138072857Y-120917142D01*
X137977619Y-120917142D01*
X137977619Y-121917142D02*
X137977619Y-121345714D01*
X137977619Y-121631428D02*
X138977619Y-121631428D01*
X138834761Y-121536190D01*
X138739523Y-121440952D01*
X138691904Y-121345714D01*
X137977619Y-122393333D02*
X137977619Y-122583809D01*
X138025238Y-122679047D01*
X138072857Y-122726666D01*
X138215714Y-122821904D01*
X138406190Y-122869523D01*
X138787142Y-122869523D01*
X138882380Y-122821904D01*
X138930000Y-122774285D01*
X138977619Y-122679047D01*
X138977619Y-122488571D01*
X138930000Y-122393333D01*
X138882380Y-122345714D01*
X138787142Y-122298095D01*
X138549047Y-122298095D01*
X138453809Y-122345714D01*
X138406190Y-122393333D01*
X138358571Y-122488571D01*
X138358571Y-122679047D01*
X138406190Y-122774285D01*
X138453809Y-122821904D01*
X138549047Y-122869523D01*
X135437619Y-119917142D02*
X136437619Y-119917142D01*
X136437619Y-120298095D01*
X136390000Y-120393333D01*
X136342380Y-120440952D01*
X136247142Y-120488571D01*
X136104285Y-120488571D01*
X136009047Y-120440952D01*
X135961428Y-120393333D01*
X135913809Y-120298095D01*
X135913809Y-119917142D01*
X135532857Y-120917142D02*
X135485238Y-120964761D01*
X135437619Y-120917142D01*
X135485238Y-120869523D01*
X135532857Y-120917142D01*
X135437619Y-120917142D01*
X135437619Y-121917142D02*
X135437619Y-121345714D01*
X135437619Y-121631428D02*
X136437619Y-121631428D01*
X136294761Y-121536190D01*
X136199523Y-121440952D01*
X136151904Y-121345714D01*
X136009047Y-122488571D02*
X136056666Y-122393333D01*
X136104285Y-122345714D01*
X136199523Y-122298095D01*
X136247142Y-122298095D01*
X136342380Y-122345714D01*
X136390000Y-122393333D01*
X136437619Y-122488571D01*
X136437619Y-122679047D01*
X136390000Y-122774285D01*
X136342380Y-122821904D01*
X136247142Y-122869523D01*
X136199523Y-122869523D01*
X136104285Y-122821904D01*
X136056666Y-122774285D01*
X136009047Y-122679047D01*
X136009047Y-122488571D01*
X135961428Y-122393333D01*
X135913809Y-122345714D01*
X135818571Y-122298095D01*
X135628095Y-122298095D01*
X135532857Y-122345714D01*
X135485238Y-122393333D01*
X135437619Y-122488571D01*
X135437619Y-122679047D01*
X135485238Y-122774285D01*
X135532857Y-122821904D01*
X135628095Y-122869523D01*
X135818571Y-122869523D01*
X135913809Y-122821904D01*
X135961428Y-122774285D01*
X136009047Y-122679047D01*
X132897619Y-115679047D02*
X132897619Y-115202857D01*
X133897619Y-115202857D01*
X133421428Y-116012380D02*
X133421428Y-116345714D01*
X132897619Y-116488571D02*
X132897619Y-116012380D01*
X133897619Y-116012380D01*
X133897619Y-116488571D01*
X132897619Y-116917142D02*
X133897619Y-116917142D01*
X133897619Y-117155238D01*
X133850000Y-117298095D01*
X133754761Y-117393333D01*
X133659523Y-117440952D01*
X133469047Y-117488571D01*
X133326190Y-117488571D01*
X133135714Y-117440952D01*
X133040476Y-117393333D01*
X132945238Y-117298095D01*
X132897619Y-117155238D01*
X132897619Y-116917142D01*
X132897619Y-118440952D02*
X132897619Y-117869523D01*
X132897619Y-118155238D02*
X133897619Y-118155238D01*
X133754761Y-118060000D01*
X133659523Y-117964761D01*
X133611904Y-117869523D01*
X133945238Y-119583809D02*
X132659523Y-118726666D01*
X132897619Y-119917142D02*
X133897619Y-119917142D01*
X133897619Y-120298095D01*
X133850000Y-120393333D01*
X133802380Y-120440952D01*
X133707142Y-120488571D01*
X133564285Y-120488571D01*
X133469047Y-120440952D01*
X133421428Y-120393333D01*
X133373809Y-120298095D01*
X133373809Y-119917142D01*
X132992857Y-120917142D02*
X132945238Y-120964761D01*
X132897619Y-120917142D01*
X132945238Y-120869523D01*
X132992857Y-120917142D01*
X132897619Y-120917142D01*
X132897619Y-121917142D02*
X132897619Y-121345714D01*
X132897619Y-121631428D02*
X133897619Y-121631428D01*
X133754761Y-121536190D01*
X133659523Y-121440952D01*
X133611904Y-121345714D01*
X133897619Y-122250476D02*
X133897619Y-122917142D01*
X132897619Y-122488571D01*
X130357619Y-119917142D02*
X131357619Y-119917142D01*
X131357619Y-120298095D01*
X131310000Y-120393333D01*
X131262380Y-120440952D01*
X131167142Y-120488571D01*
X131024285Y-120488571D01*
X130929047Y-120440952D01*
X130881428Y-120393333D01*
X130833809Y-120298095D01*
X130833809Y-119917142D01*
X130452857Y-120917142D02*
X130405238Y-120964761D01*
X130357619Y-120917142D01*
X130405238Y-120869523D01*
X130452857Y-120917142D01*
X130357619Y-120917142D01*
X130357619Y-121917142D02*
X130357619Y-121345714D01*
X130357619Y-121631428D02*
X131357619Y-121631428D01*
X131214761Y-121536190D01*
X131119523Y-121440952D01*
X131071904Y-121345714D01*
X131357619Y-122774285D02*
X131357619Y-122583809D01*
X131310000Y-122488571D01*
X131262380Y-122440952D01*
X131119523Y-122345714D01*
X130929047Y-122298095D01*
X130548095Y-122298095D01*
X130452857Y-122345714D01*
X130405238Y-122393333D01*
X130357619Y-122488571D01*
X130357619Y-122679047D01*
X130405238Y-122774285D01*
X130452857Y-122821904D01*
X130548095Y-122869523D01*
X130786190Y-122869523D01*
X130881428Y-122821904D01*
X130929047Y-122774285D01*
X130976666Y-122679047D01*
X130976666Y-122488571D01*
X130929047Y-122393333D01*
X130881428Y-122345714D01*
X130786190Y-122298095D01*
X127817619Y-119917142D02*
X128817619Y-119917142D01*
X128817619Y-120298095D01*
X128770000Y-120393333D01*
X128722380Y-120440952D01*
X128627142Y-120488571D01*
X128484285Y-120488571D01*
X128389047Y-120440952D01*
X128341428Y-120393333D01*
X128293809Y-120298095D01*
X128293809Y-119917142D01*
X127912857Y-120917142D02*
X127865238Y-120964761D01*
X127817619Y-120917142D01*
X127865238Y-120869523D01*
X127912857Y-120917142D01*
X127817619Y-120917142D01*
X127817619Y-121917142D02*
X127817619Y-121345714D01*
X127817619Y-121631428D02*
X128817619Y-121631428D01*
X128674761Y-121536190D01*
X128579523Y-121440952D01*
X128531904Y-121345714D01*
X128817619Y-122821904D02*
X128817619Y-122345714D01*
X128341428Y-122298095D01*
X128389047Y-122345714D01*
X128436666Y-122440952D01*
X128436666Y-122679047D01*
X128389047Y-122774285D01*
X128341428Y-122821904D01*
X128246190Y-122869523D01*
X128008095Y-122869523D01*
X127912857Y-122821904D01*
X127865238Y-122774285D01*
X127817619Y-122679047D01*
X127817619Y-122440952D01*
X127865238Y-122345714D01*
X127912857Y-122298095D01*
X126230000Y-120774285D02*
X126277619Y-120679047D01*
X126277619Y-120536190D01*
X126230000Y-120393333D01*
X126134761Y-120298095D01*
X126039523Y-120250476D01*
X125849047Y-120202857D01*
X125706190Y-120202857D01*
X125515714Y-120250476D01*
X125420476Y-120298095D01*
X125325238Y-120393333D01*
X125277619Y-120536190D01*
X125277619Y-120631428D01*
X125325238Y-120774285D01*
X125372857Y-120821904D01*
X125706190Y-120821904D01*
X125706190Y-120631428D01*
X125277619Y-121250476D02*
X126277619Y-121250476D01*
X125277619Y-121821904D01*
X126277619Y-121821904D01*
X125277619Y-122298095D02*
X126277619Y-122298095D01*
X126277619Y-122536190D01*
X126230000Y-122679047D01*
X126134761Y-122774285D01*
X126039523Y-122821904D01*
X125849047Y-122869523D01*
X125706190Y-122869523D01*
X125515714Y-122821904D01*
X125420476Y-122774285D01*
X125325238Y-122679047D01*
X125277619Y-122536190D01*
X125277619Y-122298095D01*
X122737619Y-119917142D02*
X123737619Y-119917142D01*
X123737619Y-120298095D01*
X123690000Y-120393333D01*
X123642380Y-120440952D01*
X123547142Y-120488571D01*
X123404285Y-120488571D01*
X123309047Y-120440952D01*
X123261428Y-120393333D01*
X123213809Y-120298095D01*
X123213809Y-119917142D01*
X122832857Y-120917142D02*
X122785238Y-120964761D01*
X122737619Y-120917142D01*
X122785238Y-120869523D01*
X122832857Y-120917142D01*
X122737619Y-120917142D01*
X122737619Y-121917142D02*
X122737619Y-121345714D01*
X122737619Y-121631428D02*
X123737619Y-121631428D01*
X123594761Y-121536190D01*
X123499523Y-121440952D01*
X123451904Y-121345714D01*
X123404285Y-122774285D02*
X122737619Y-122774285D01*
X123785238Y-122536190D02*
X123070952Y-122298095D01*
X123070952Y-122917142D01*
X121197619Y-120298095D02*
X120197619Y-120631428D01*
X121197619Y-120964761D01*
X120292857Y-121869523D02*
X120245238Y-121821904D01*
X120197619Y-121679047D01*
X120197619Y-121583809D01*
X120245238Y-121440952D01*
X120340476Y-121345714D01*
X120435714Y-121298095D01*
X120626190Y-121250476D01*
X120769047Y-121250476D01*
X120959523Y-121298095D01*
X121054761Y-121345714D01*
X121150000Y-121440952D01*
X121197619Y-121583809D01*
X121197619Y-121679047D01*
X121150000Y-121821904D01*
X121102380Y-121869523D01*
X120292857Y-122869523D02*
X120245238Y-122821904D01*
X120197619Y-122679047D01*
X120197619Y-122583809D01*
X120245238Y-122440952D01*
X120340476Y-122345714D01*
X120435714Y-122298095D01*
X120626190Y-122250476D01*
X120769047Y-122250476D01*
X120959523Y-122298095D01*
X121054761Y-122345714D01*
X121150000Y-122440952D01*
X121197619Y-122583809D01*
X121197619Y-122679047D01*
X121150000Y-122821904D01*
X121102380Y-122869523D01*
X117757619Y-119345714D02*
X118233809Y-119012380D01*
X117757619Y-118774285D02*
X118757619Y-118774285D01*
X118757619Y-119155238D01*
X118710000Y-119250476D01*
X118662380Y-119298095D01*
X118567142Y-119345714D01*
X118424285Y-119345714D01*
X118329047Y-119298095D01*
X118281428Y-119250476D01*
X118233809Y-119155238D01*
X118233809Y-118774285D01*
X118281428Y-119774285D02*
X118281428Y-120107619D01*
X117757619Y-120250476D02*
X117757619Y-119774285D01*
X118757619Y-119774285D01*
X118757619Y-120250476D01*
X117805238Y-120631428D02*
X117757619Y-120774285D01*
X117757619Y-121012380D01*
X117805238Y-121107619D01*
X117852857Y-121155238D01*
X117948095Y-121202857D01*
X118043333Y-121202857D01*
X118138571Y-121155238D01*
X118186190Y-121107619D01*
X118233809Y-121012380D01*
X118281428Y-120821904D01*
X118329047Y-120726666D01*
X118376666Y-120679047D01*
X118471904Y-120631428D01*
X118567142Y-120631428D01*
X118662380Y-120679047D01*
X118710000Y-120726666D01*
X118757619Y-120821904D01*
X118757619Y-121060000D01*
X118710000Y-121202857D01*
X118281428Y-121631428D02*
X118281428Y-121964761D01*
X117757619Y-122107619D02*
X117757619Y-121631428D01*
X118757619Y-121631428D01*
X118757619Y-122107619D01*
X118757619Y-122393333D02*
X118757619Y-122964761D01*
X117757619Y-122679047D02*
X118757619Y-122679047D01*
D13*
G04 #@! TO.C,JP1*
X154940000Y-123130000D02*
X154940000Y-125790000D01*
X154940000Y-123130000D02*
X116780000Y-123130000D01*
X116780000Y-123130000D02*
X116780000Y-125790000D01*
X154940000Y-125790000D02*
X116780000Y-125790000D01*
X157540000Y-125790000D02*
X156210000Y-125790000D01*
X157540000Y-124460000D02*
X157540000Y-125790000D01*
G04 #@! TO.C,JP3*
X154940000Y-102810000D02*
X154940000Y-105470000D01*
X154940000Y-102810000D02*
X126940000Y-102810000D01*
X126940000Y-102810000D02*
X126940000Y-105470000D01*
X154940000Y-105470000D02*
X126940000Y-105470000D01*
X157540000Y-105470000D02*
X156210000Y-105470000D01*
X157540000Y-104140000D02*
X157540000Y-105470000D01*
D14*
G04 #@! TO.C,U1*
X156880000Y-109030000D02*
G75*
G03X156880000Y-109030000I-150000J0D01*
G01*
D15*
X147370000Y-119400000D02*
X161370000Y-119400000D01*
X147370000Y-109600000D02*
X147370000Y-119400000D01*
X161370000Y-109600000D02*
X147370000Y-109600000D01*
X161370000Y-119400000D02*
X161370000Y-109600000D01*
D13*
G04 #@! TO.C,J1*
X120155000Y-103445000D02*
X123685000Y-103445000D01*
X120155000Y-109915000D02*
X123685000Y-109915000D01*
X118830000Y-103510000D02*
X120155000Y-103510000D01*
X120155000Y-103445000D02*
X120155000Y-103510000D01*
X123685000Y-103445000D02*
X123685000Y-103510000D01*
X120155000Y-109850000D02*
X120155000Y-109915000D01*
X123685000Y-109850000D02*
X123685000Y-109915000D01*
G04 #@! TO.C,LED1*
X131405000Y-118010000D02*
X131405000Y-115725000D01*
X129935000Y-118010000D02*
X131405000Y-118010000D01*
X129935000Y-115725000D02*
X129935000Y-118010000D01*
G04 #@! TO.C,R1*
X130045279Y-114910000D02*
X129719721Y-114910000D01*
X130045279Y-113890000D02*
X129719721Y-113890000D01*
G04 #@! TO.C,JP1*
D12*
X136336666Y-118252380D02*
X136336666Y-118966666D01*
X136289047Y-119109523D01*
X136193809Y-119204761D01*
X136050952Y-119252380D01*
X135955714Y-119252380D01*
X136812857Y-119252380D02*
X136812857Y-118252380D01*
X137193809Y-118252380D01*
X137289047Y-118300000D01*
X137336666Y-118347619D01*
X137384285Y-118442857D01*
X137384285Y-118585714D01*
X137336666Y-118680952D01*
X137289047Y-118728571D01*
X137193809Y-118776190D01*
X136812857Y-118776190D01*
X138336666Y-119252380D02*
X137765238Y-119252380D01*
X138050952Y-119252380D02*
X138050952Y-118252380D01*
X137955714Y-118395238D01*
X137860476Y-118490476D01*
X137765238Y-118538095D01*
G04 #@! TO.C,JP3*
X141536666Y-109252380D02*
X141536666Y-109966666D01*
X141489047Y-110109523D01*
X141393809Y-110204761D01*
X141250952Y-110252380D01*
X141155714Y-110252380D01*
X142012857Y-110252380D02*
X142012857Y-109252380D01*
X142393809Y-109252380D01*
X142489047Y-109300000D01*
X142536666Y-109347619D01*
X142584285Y-109442857D01*
X142584285Y-109585714D01*
X142536666Y-109680952D01*
X142489047Y-109728571D01*
X142393809Y-109776190D01*
X142012857Y-109776190D01*
X142917619Y-109252380D02*
X143536666Y-109252380D01*
X143203333Y-109633333D01*
X143346190Y-109633333D01*
X143441428Y-109680952D01*
X143489047Y-109728571D01*
X143536666Y-109823809D01*
X143536666Y-110061904D01*
X143489047Y-110157142D01*
X143441428Y-110204761D01*
X143346190Y-110252380D01*
X143060476Y-110252380D01*
X142965238Y-110204761D01*
X142917619Y-110157142D01*
G04 #@! TO.C,U1*
D16*
X144941428Y-114957142D02*
X145427142Y-114957142D01*
X145484285Y-114928571D01*
X145512857Y-114900000D01*
X145541428Y-114842857D01*
X145541428Y-114728571D01*
X145512857Y-114671428D01*
X145484285Y-114642857D01*
X145427142Y-114614285D01*
X144941428Y-114614285D01*
X145541428Y-114014285D02*
X145541428Y-114357142D01*
X145541428Y-114185714D02*
X144941428Y-114185714D01*
X145027142Y-114242857D01*
X145084285Y-114300000D01*
X145112857Y-114357142D01*
X146227142Y-117628571D02*
X146255714Y-117542857D01*
X146284285Y-117514285D01*
X146341428Y-117485714D01*
X146427142Y-117485714D01*
X146484285Y-117514285D01*
X146512857Y-117542857D01*
X146541428Y-117600000D01*
X146541428Y-117828571D01*
X145941428Y-117828571D01*
X145941428Y-117628571D01*
X145970000Y-117571428D01*
X145998571Y-117542857D01*
X146055714Y-117514285D01*
X146112857Y-117514285D01*
X146170000Y-117542857D01*
X146198571Y-117571428D01*
X146227142Y-117628571D01*
X146227142Y-117828571D01*
X146541428Y-117228571D02*
X145941428Y-117228571D01*
X146370000Y-117028571D01*
X145941428Y-116828571D01*
X146541428Y-116828571D01*
X146541428Y-116542857D02*
X145941428Y-116542857D01*
X145941428Y-116400000D01*
X145970000Y-116314285D01*
X146027142Y-116257142D01*
X146084285Y-116228571D01*
X146198571Y-116200000D01*
X146284285Y-116200000D01*
X146398571Y-116228571D01*
X146455714Y-116257142D01*
X146512857Y-116314285D01*
X146541428Y-116400000D01*
X146541428Y-116542857D01*
X146312857Y-115942857D02*
X146312857Y-115485714D01*
X145941428Y-115257142D02*
X145941428Y-114885714D01*
X146170000Y-115085714D01*
X146170000Y-115000000D01*
X146198571Y-114942857D01*
X146227142Y-114914285D01*
X146284285Y-114885714D01*
X146427142Y-114885714D01*
X146484285Y-114914285D01*
X146512857Y-114942857D01*
X146541428Y-115000000D01*
X146541428Y-115171428D01*
X146512857Y-115228571D01*
X146484285Y-115257142D01*
X145941428Y-114514285D02*
X145941428Y-114457142D01*
X145970000Y-114400000D01*
X145998571Y-114371428D01*
X146055714Y-114342857D01*
X146170000Y-114314285D01*
X146312857Y-114314285D01*
X146427142Y-114342857D01*
X146484285Y-114371428D01*
X146512857Y-114400000D01*
X146541428Y-114457142D01*
X146541428Y-114514285D01*
X146512857Y-114571428D01*
X146484285Y-114600000D01*
X146427142Y-114628571D01*
X146312857Y-114657142D01*
X146170000Y-114657142D01*
X146055714Y-114628571D01*
X145998571Y-114600000D01*
X145970000Y-114571428D01*
X145941428Y-114514285D01*
X145941428Y-113942857D02*
X145941428Y-113885714D01*
X145970000Y-113828571D01*
X145998571Y-113800000D01*
X146055714Y-113771428D01*
X146170000Y-113742857D01*
X146312857Y-113742857D01*
X146427142Y-113771428D01*
X146484285Y-113800000D01*
X146512857Y-113828571D01*
X146541428Y-113885714D01*
X146541428Y-113942857D01*
X146512857Y-114000000D01*
X146484285Y-114028571D01*
X146427142Y-114057142D01*
X146312857Y-114085714D01*
X146170000Y-114085714D01*
X146055714Y-114057142D01*
X145998571Y-114028571D01*
X145970000Y-114000000D01*
X145941428Y-113942857D01*
X146312857Y-113485714D02*
X146312857Y-113028571D01*
X146370000Y-112771428D02*
X146370000Y-112485714D01*
X146541428Y-112828571D02*
X145941428Y-112628571D01*
X146541428Y-112428571D01*
X146312857Y-112228571D02*
X146312857Y-111771428D01*
X146541428Y-111142857D02*
X146255714Y-111342857D01*
X146541428Y-111485714D02*
X145941428Y-111485714D01*
X145941428Y-111257142D01*
X145970000Y-111200000D01*
X145998571Y-111171428D01*
X146055714Y-111142857D01*
X146141428Y-111142857D01*
X146198571Y-111171428D01*
X146227142Y-111200000D01*
X146255714Y-111257142D01*
X146255714Y-111485714D01*
G04 #@! TO.C,J1*
D12*
X121586666Y-110352380D02*
X121586666Y-111066666D01*
X121539047Y-111209523D01*
X121443809Y-111304761D01*
X121300952Y-111352380D01*
X121205714Y-111352380D01*
X122586666Y-111352380D02*
X122015238Y-111352380D01*
X122300952Y-111352380D02*
X122300952Y-110352380D01*
X122205714Y-110495238D01*
X122110476Y-110590476D01*
X122015238Y-110638095D01*
G04 #@! TO.C,LED1*
D14*
X131653333Y-115829166D02*
X131653333Y-115495833D01*
X132353333Y-115495833D01*
X132020000Y-116062500D02*
X132020000Y-116295833D01*
X131653333Y-116395833D02*
X131653333Y-116062500D01*
X132353333Y-116062500D01*
X132353333Y-116395833D01*
X131653333Y-116695833D02*
X132353333Y-116695833D01*
X132353333Y-116862500D01*
X132320000Y-116962500D01*
X132253333Y-117029166D01*
X132186666Y-117062500D01*
X132053333Y-117095833D01*
X131953333Y-117095833D01*
X131820000Y-117062500D01*
X131753333Y-117029166D01*
X131686666Y-116962500D01*
X131653333Y-116862500D01*
X131653333Y-116695833D01*
X131653333Y-117762500D02*
X131653333Y-117362500D01*
X131653333Y-117562500D02*
X132353333Y-117562500D01*
X132253333Y-117495833D01*
X132186666Y-117429166D01*
X132153333Y-117362500D01*
G04 #@! TO.C,R1*
X129753333Y-113486666D02*
X129520000Y-113153333D01*
X129353333Y-113486666D02*
X129353333Y-112786666D01*
X129620000Y-112786666D01*
X129686666Y-112820000D01*
X129720000Y-112853333D01*
X129753333Y-112920000D01*
X129753333Y-113020000D01*
X129720000Y-113086666D01*
X129686666Y-113120000D01*
X129620000Y-113153333D01*
X129353333Y-113153333D01*
X130420000Y-113486666D02*
X130020000Y-113486666D01*
X130220000Y-113486666D02*
X130220000Y-112786666D01*
X130153333Y-112886666D01*
X130086666Y-112953333D01*
X130020000Y-112986666D01*
G04 #@! TD*
M02*
