M48
;DRILL file {KiCad (5.0.1)-3} date 27.11.2018 12:15:13
;FORMAT={-:-/ absolute / metric / decimal}
FMAT,2
METRIC,TZ
T1C0.400
T2C1.000
%
G90
G05
M71
T1
X117.22Y-111.
X118.11Y-115.55
X120.65Y-114.47
X121.86Y-105.41
X127.22Y-106.4
X127.22Y-107.45
X138.92Y-111.
X146.97Y-117.3
X146.97Y-118.9
X151.22Y-117.3
X153.42Y-116.45
X155.02Y-114.
X155.02Y-115.
T2
X118.11Y-124.46
X120.65Y-124.46
X123.19Y-124.46
X125.73Y-124.46
X128.27Y-124.46
X130.81Y-124.46
X133.35Y-124.46
X135.89Y-124.46
X138.43Y-124.46
X140.97Y-124.46
X143.51Y-124.46
X146.05Y-124.46
X148.59Y-124.46
X151.13Y-124.46
X153.67Y-124.46
X156.21Y-124.46
X128.27Y-104.14
X130.81Y-104.14
X133.35Y-104.14
X135.89Y-104.14
X138.43Y-104.14
X140.97Y-104.14
X143.51Y-104.14
X146.05Y-104.14
X148.59Y-104.14
X151.13Y-104.14
X153.67Y-104.14
X156.21Y-104.14
T0
M30
