G04 #@! TF.GenerationSoftware,KiCad,Pcbnew,(5.0.1)-3*
G04 #@! TF.CreationDate,2018-11-27T12:57:36+01:00*
G04 #@! TF.ProjectId,Adafruit_FeatherWing,41646166727569745F46656174686572,rev?*
G04 #@! TF.SameCoordinates,Original*
G04 #@! TF.FileFunction,Copper,L1,Top,Signal*
G04 #@! TF.FilePolarity,Positive*
%FSLAX46Y46*%
G04 Gerber Fmt 4.6, Leading zero omitted, Abs format (unit mm)*
G04 Created by KiCad (PCBNEW (5.0.1)-3) date 27.11.2018 12:57:36*
%MOMM*%
%LPD*%
G01*
G04 APERTURE LIST*
G04 #@! TA.AperFunction,ComponentPad*
%ADD10R,1.700000X1.700000*%
G04 #@! TD*
G04 #@! TA.AperFunction,ComponentPad*
%ADD11O,1.700000X1.700000*%
G04 #@! TD*
G04 #@! TA.AperFunction,WasherPad*
%ADD12C,3.556000*%
G04 #@! TD*
G04 #@! TA.AperFunction,SMDPad,CuDef*
%ADD13R,0.500000X0.500000*%
G04 #@! TD*
G04 #@! TA.AperFunction,SMDPad,CuDef*
%ADD14R,2.400000X0.740000*%
G04 #@! TD*
G04 #@! TA.AperFunction,Conductor*
%ADD15C,0.100000*%
G04 #@! TD*
G04 #@! TA.AperFunction,SMDPad,CuDef*
%ADD16C,0.875000*%
G04 #@! TD*
G04 #@! TA.AperFunction,ViaPad*
%ADD17C,0.600000*%
G04 #@! TD*
G04 #@! TA.AperFunction,Conductor*
%ADD18C,0.200000*%
G04 #@! TD*
G04 APERTURE END LIST*
D10*
G04 #@! TO.P,JP1,1*
G04 #@! TO.N,GND*
X156210000Y-124460000D03*
D11*
G04 #@! TO.P,JP1,2*
G04 #@! TO.N,/SWDIO*
X153670000Y-124460000D03*
G04 #@! TO.P,JP1,3*
G04 #@! TO.N,/SWDCLK*
X151130000Y-124460000D03*
G04 #@! TO.P,JP1,4*
G04 #@! TO.N,/P.24*
X148590000Y-124460000D03*
G04 #@! TO.P,JP1,5*
G04 #@! TO.N,/P.23*
X146050000Y-124460000D03*
G04 #@! TO.P,JP1,6*
G04 #@! TO.N,/P.22*
X143510000Y-124460000D03*
G04 #@! TO.P,JP1,7*
G04 #@! TO.N,/P.20*
X140970000Y-124460000D03*
G04 #@! TO.P,JP1,8*
G04 #@! TO.N,/P.19*
X138430000Y-124460000D03*
G04 #@! TO.P,JP1,9*
G04 #@! TO.N,/P.18*
X135890000Y-124460000D03*
G04 #@! TO.P,JP1,10*
G04 #@! TO.N,/P.17*
X133350000Y-124460000D03*
G04 #@! TO.P,JP1,11*
G04 #@! TO.N,/P.16*
X130810000Y-124460000D03*
G04 #@! TO.P,JP1,12*
G04 #@! TO.N,/P.15*
X128270000Y-124460000D03*
G04 #@! TO.P,JP1,13*
G04 #@! TO.N,GND*
X125730000Y-124460000D03*
G04 #@! TO.P,JP1,14*
G04 #@! TO.N,/P.14*
X123190000Y-124460000D03*
G04 #@! TO.P,JP1,15*
G04 #@! TO.N,VCC*
X120650000Y-124460000D03*
G04 #@! TO.P,JP1,16*
G04 #@! TO.N,/~RESET*
X118110000Y-124460000D03*
G04 #@! TD*
D12*
G04 #@! TO.P,PCB\002A\002A,*
G04 #@! TO.N,*
X160020000Y-123190000D03*
X114300000Y-123190000D03*
X160020000Y-105410000D03*
X114300000Y-105410000D03*
G04 #@! TD*
D10*
G04 #@! TO.P,JP3,1*
G04 #@! TO.N,/P.25*
X156210000Y-104140000D03*
D11*
G04 #@! TO.P,JP3,2*
G04 #@! TO.N,/P.26*
X153670000Y-104140000D03*
G04 #@! TO.P,JP3,3*
G04 #@! TO.N,/P.27*
X151130000Y-104140000D03*
G04 #@! TO.P,JP3,4*
G04 #@! TO.N,/P.28*
X148590000Y-104140000D03*
G04 #@! TO.P,JP3,5*
G04 #@! TO.N,/P.29*
X146050000Y-104140000D03*
G04 #@! TO.P,JP3,6*
G04 #@! TO.N,/P.30*
X143510000Y-104140000D03*
G04 #@! TO.P,JP3,7*
G04 #@! TO.N,/P.31*
X140970000Y-104140000D03*
G04 #@! TO.P,JP3,8*
G04 #@! TO.N,/P.00*
X138430000Y-104140000D03*
G04 #@! TO.P,JP3,9*
G04 #@! TO.N,/P.01*
X135890000Y-104140000D03*
G04 #@! TO.P,JP3,10*
G04 #@! TO.N,/P.02*
X133350000Y-104140000D03*
G04 #@! TO.P,JP3,11*
G04 #@! TO.N,/P.03*
X130810000Y-104140000D03*
G04 #@! TO.P,JP3,12*
G04 #@! TO.N,/P.04*
X128270000Y-104140000D03*
G04 #@! TD*
D13*
G04 #@! TO.P,U1,47*
G04 #@! TO.N,GND*
X156720000Y-112850000D03*
G04 #@! TO.P,U1,46*
X156720000Y-116150000D03*
G04 #@! TO.P,U1,45*
X156720000Y-118900000D03*
G04 #@! TO.P,U1,44*
G04 #@! TO.N,/SWDIO*
X156170000Y-118000000D03*
G04 #@! TO.P,U1,43*
G04 #@! TO.N,/SWDCLK*
X155620000Y-118900000D03*
G04 #@! TO.P,U1,42*
G04 #@! TO.N,/P.24*
X155070000Y-118000000D03*
G04 #@! TO.P,U1,41*
G04 #@! TO.N,/P.23*
X154520000Y-118900000D03*
G04 #@! TO.P,U1,40*
G04 #@! TO.N,/P.22*
X153970000Y-118000000D03*
G04 #@! TO.P,U1,39*
G04 #@! TO.N,/~RESET*
X153420000Y-118900000D03*
G04 #@! TO.P,U1,38*
G04 #@! TO.N,/P.20*
X152870000Y-118000000D03*
G04 #@! TO.P,U1,37*
G04 #@! TO.N,/P.19*
X152320000Y-118900000D03*
G04 #@! TO.P,U1,36*
G04 #@! TO.N,/P.18*
X151770000Y-118000000D03*
G04 #@! TO.P,U1,35*
G04 #@! TO.N,/P.17*
X151220000Y-118900000D03*
G04 #@! TO.P,U1,34*
G04 #@! TO.N,/P.16*
X150670000Y-118000000D03*
G04 #@! TO.P,U1,33*
G04 #@! TO.N,/P.15*
X150120000Y-118900000D03*
G04 #@! TO.P,U1,32*
G04 #@! TO.N,/P.14*
X149570000Y-118000000D03*
G04 #@! TO.P,U1,31*
G04 #@! TO.N,Net-(U1-Pad31)*
X149020000Y-118900000D03*
G04 #@! TO.P,U1,30*
G04 #@! TO.N,GND*
X147920000Y-118900000D03*
G04 #@! TO.P,U1,29*
X147920000Y-117800000D03*
G04 #@! TO.P,U1,28*
G04 #@! TO.N,Net-(U1-Pad28)*
X148820000Y-117250000D03*
G04 #@! TO.P,U1,27*
G04 #@! TO.N,Net-(U1-Pad27)*
X147920000Y-116700000D03*
G04 #@! TO.P,U1,26*
G04 #@! TO.N,Net-(U1-Pad26)*
X148820000Y-116150000D03*
G04 #@! TO.P,U1,25*
G04 #@! TO.N,Net-(U1-Pad25)*
X147920000Y-115600000D03*
G04 #@! TO.P,U1,24*
G04 #@! TO.N,Net-(U1-Pad24)*
X148820000Y-115050000D03*
G04 #@! TO.P,U1,23*
G04 #@! TO.N,Net-(U1-Pad23)*
X147920000Y-114500000D03*
G04 #@! TO.P,U1,22*
G04 #@! TO.N,Net-(U1-Pad22)*
X148820000Y-113950000D03*
G04 #@! TO.P,U1,21*
G04 #@! TO.N,Net-(U1-Pad21)*
X147920000Y-113400000D03*
G04 #@! TO.P,U1,20*
G04 #@! TO.N,/P.04*
X148820000Y-112850000D03*
G04 #@! TO.P,U1,19*
G04 #@! TO.N,/P.03*
X147920000Y-112300000D03*
G04 #@! TO.P,U1,18*
G04 #@! TO.N,GND*
X148820000Y-111750000D03*
G04 #@! TO.P,U1,17*
G04 #@! TO.N,VCC*
X147920000Y-111200000D03*
G04 #@! TO.P,U1,16*
G04 #@! TO.N,GND*
X147920000Y-110100000D03*
G04 #@! TO.P,U1,15*
G04 #@! TO.N,/P.02*
X149020000Y-110100000D03*
G04 #@! TO.P,U1,14*
G04 #@! TO.N,/P.01*
X149570000Y-111000000D03*
G04 #@! TO.P,U1,13*
G04 #@! TO.N,/P.00*
X150120000Y-110100000D03*
G04 #@! TO.P,U1,12*
G04 #@! TO.N,/P.31*
X150670000Y-111000000D03*
G04 #@! TO.P,U1,11*
G04 #@! TO.N,/P.30*
X151220000Y-110100000D03*
G04 #@! TO.P,U1,10*
G04 #@! TO.N,/P.29*
X151770000Y-111000000D03*
G04 #@! TO.P,U1,9*
G04 #@! TO.N,/P.28*
X152320000Y-110100000D03*
G04 #@! TO.P,U1,8*
G04 #@! TO.N,/P.27*
X152870000Y-111000000D03*
G04 #@! TO.P,U1,7*
G04 #@! TO.N,/P.26*
X153420000Y-110100000D03*
G04 #@! TO.P,U1,6*
G04 #@! TO.N,/P.25*
X153970000Y-111000000D03*
G04 #@! TO.P,U1,5*
G04 #@! TO.N,GND*
X154520000Y-110100000D03*
G04 #@! TO.P,U1,4*
X155070000Y-111000000D03*
G04 #@! TO.P,U1,3*
X155620000Y-110100000D03*
G04 #@! TO.P,U1,2*
X156170000Y-111000000D03*
G04 #@! TO.P,U1,1*
X156720000Y-110100000D03*
G04 #@! TD*
D14*
G04 #@! TO.P,J1,1*
G04 #@! TO.N,VCC*
X119970000Y-104140000D03*
G04 #@! TO.P,J1,2*
G04 #@! TO.N,/SWDIO*
X123870000Y-104140000D03*
G04 #@! TO.P,J1,3*
G04 #@! TO.N,GND*
X119970000Y-105410000D03*
G04 #@! TO.P,J1,4*
G04 #@! TO.N,/SWDCLK*
X123870000Y-105410000D03*
G04 #@! TO.P,J1,5*
G04 #@! TO.N,GND*
X119970000Y-106680000D03*
G04 #@! TO.P,J1,6*
G04 #@! TO.N,Net-(J1-Pad6)*
X123870000Y-106680000D03*
G04 #@! TO.P,J1,7*
G04 #@! TO.N,Net-(J1-Pad7)*
X119970000Y-107950000D03*
G04 #@! TO.P,J1,8*
G04 #@! TO.N,Net-(J1-Pad8)*
X123870000Y-107950000D03*
G04 #@! TO.P,J1,9*
G04 #@! TO.N,Net-(J1-Pad9)*
X119970000Y-109220000D03*
G04 #@! TO.P,J1,10*
G04 #@! TO.N,/~RESET*
X123870000Y-109220000D03*
G04 #@! TD*
D15*
G04 #@! TO.N,Net-(LED1-Pad2)*
G04 #@! TO.C,LED1*
G36*
X130947691Y-115301053D02*
X130968926Y-115304203D01*
X130989750Y-115309419D01*
X131009962Y-115316651D01*
X131029368Y-115325830D01*
X131047781Y-115336866D01*
X131065024Y-115349654D01*
X131080930Y-115364070D01*
X131095346Y-115379976D01*
X131108134Y-115397219D01*
X131119170Y-115415632D01*
X131128349Y-115435038D01*
X131135581Y-115455250D01*
X131140797Y-115476074D01*
X131143947Y-115497309D01*
X131145000Y-115518750D01*
X131145000Y-115956250D01*
X131143947Y-115977691D01*
X131140797Y-115998926D01*
X131135581Y-116019750D01*
X131128349Y-116039962D01*
X131119170Y-116059368D01*
X131108134Y-116077781D01*
X131095346Y-116095024D01*
X131080930Y-116110930D01*
X131065024Y-116125346D01*
X131047781Y-116138134D01*
X131029368Y-116149170D01*
X131009962Y-116158349D01*
X130989750Y-116165581D01*
X130968926Y-116170797D01*
X130947691Y-116173947D01*
X130926250Y-116175000D01*
X130413750Y-116175000D01*
X130392309Y-116173947D01*
X130371074Y-116170797D01*
X130350250Y-116165581D01*
X130330038Y-116158349D01*
X130310632Y-116149170D01*
X130292219Y-116138134D01*
X130274976Y-116125346D01*
X130259070Y-116110930D01*
X130244654Y-116095024D01*
X130231866Y-116077781D01*
X130220830Y-116059368D01*
X130211651Y-116039962D01*
X130204419Y-116019750D01*
X130199203Y-115998926D01*
X130196053Y-115977691D01*
X130195000Y-115956250D01*
X130195000Y-115518750D01*
X130196053Y-115497309D01*
X130199203Y-115476074D01*
X130204419Y-115455250D01*
X130211651Y-115435038D01*
X130220830Y-115415632D01*
X130231866Y-115397219D01*
X130244654Y-115379976D01*
X130259070Y-115364070D01*
X130274976Y-115349654D01*
X130292219Y-115336866D01*
X130310632Y-115325830D01*
X130330038Y-115316651D01*
X130350250Y-115309419D01*
X130371074Y-115304203D01*
X130392309Y-115301053D01*
X130413750Y-115300000D01*
X130926250Y-115300000D01*
X130947691Y-115301053D01*
X130947691Y-115301053D01*
G37*
D16*
G04 #@! TD*
G04 #@! TO.P,LED1,2*
G04 #@! TO.N,Net-(LED1-Pad2)*
X130670000Y-115737500D03*
D15*
G04 #@! TO.N,/P.17*
G04 #@! TO.C,LED1*
G36*
X130947691Y-116876053D02*
X130968926Y-116879203D01*
X130989750Y-116884419D01*
X131009962Y-116891651D01*
X131029368Y-116900830D01*
X131047781Y-116911866D01*
X131065024Y-116924654D01*
X131080930Y-116939070D01*
X131095346Y-116954976D01*
X131108134Y-116972219D01*
X131119170Y-116990632D01*
X131128349Y-117010038D01*
X131135581Y-117030250D01*
X131140797Y-117051074D01*
X131143947Y-117072309D01*
X131145000Y-117093750D01*
X131145000Y-117531250D01*
X131143947Y-117552691D01*
X131140797Y-117573926D01*
X131135581Y-117594750D01*
X131128349Y-117614962D01*
X131119170Y-117634368D01*
X131108134Y-117652781D01*
X131095346Y-117670024D01*
X131080930Y-117685930D01*
X131065024Y-117700346D01*
X131047781Y-117713134D01*
X131029368Y-117724170D01*
X131009962Y-117733349D01*
X130989750Y-117740581D01*
X130968926Y-117745797D01*
X130947691Y-117748947D01*
X130926250Y-117750000D01*
X130413750Y-117750000D01*
X130392309Y-117748947D01*
X130371074Y-117745797D01*
X130350250Y-117740581D01*
X130330038Y-117733349D01*
X130310632Y-117724170D01*
X130292219Y-117713134D01*
X130274976Y-117700346D01*
X130259070Y-117685930D01*
X130244654Y-117670024D01*
X130231866Y-117652781D01*
X130220830Y-117634368D01*
X130211651Y-117614962D01*
X130204419Y-117594750D01*
X130199203Y-117573926D01*
X130196053Y-117552691D01*
X130195000Y-117531250D01*
X130195000Y-117093750D01*
X130196053Y-117072309D01*
X130199203Y-117051074D01*
X130204419Y-117030250D01*
X130211651Y-117010038D01*
X130220830Y-116990632D01*
X130231866Y-116972219D01*
X130244654Y-116954976D01*
X130259070Y-116939070D01*
X130274976Y-116924654D01*
X130292219Y-116911866D01*
X130310632Y-116900830D01*
X130330038Y-116891651D01*
X130350250Y-116884419D01*
X130371074Y-116879203D01*
X130392309Y-116876053D01*
X130413750Y-116875000D01*
X130926250Y-116875000D01*
X130947691Y-116876053D01*
X130947691Y-116876053D01*
G37*
D16*
G04 #@! TD*
G04 #@! TO.P,LED1,1*
G04 #@! TO.N,/P.17*
X130670000Y-117312500D03*
D15*
G04 #@! TO.N,Net-(LED1-Pad2)*
G04 #@! TO.C,R1*
G36*
X130910191Y-113926053D02*
X130931426Y-113929203D01*
X130952250Y-113934419D01*
X130972462Y-113941651D01*
X130991868Y-113950830D01*
X131010281Y-113961866D01*
X131027524Y-113974654D01*
X131043430Y-113989070D01*
X131057846Y-114004976D01*
X131070634Y-114022219D01*
X131081670Y-114040632D01*
X131090849Y-114060038D01*
X131098081Y-114080250D01*
X131103297Y-114101074D01*
X131106447Y-114122309D01*
X131107500Y-114143750D01*
X131107500Y-114656250D01*
X131106447Y-114677691D01*
X131103297Y-114698926D01*
X131098081Y-114719750D01*
X131090849Y-114739962D01*
X131081670Y-114759368D01*
X131070634Y-114777781D01*
X131057846Y-114795024D01*
X131043430Y-114810930D01*
X131027524Y-114825346D01*
X131010281Y-114838134D01*
X130991868Y-114849170D01*
X130972462Y-114858349D01*
X130952250Y-114865581D01*
X130931426Y-114870797D01*
X130910191Y-114873947D01*
X130888750Y-114875000D01*
X130451250Y-114875000D01*
X130429809Y-114873947D01*
X130408574Y-114870797D01*
X130387750Y-114865581D01*
X130367538Y-114858349D01*
X130348132Y-114849170D01*
X130329719Y-114838134D01*
X130312476Y-114825346D01*
X130296570Y-114810930D01*
X130282154Y-114795024D01*
X130269366Y-114777781D01*
X130258330Y-114759368D01*
X130249151Y-114739962D01*
X130241919Y-114719750D01*
X130236703Y-114698926D01*
X130233553Y-114677691D01*
X130232500Y-114656250D01*
X130232500Y-114143750D01*
X130233553Y-114122309D01*
X130236703Y-114101074D01*
X130241919Y-114080250D01*
X130249151Y-114060038D01*
X130258330Y-114040632D01*
X130269366Y-114022219D01*
X130282154Y-114004976D01*
X130296570Y-113989070D01*
X130312476Y-113974654D01*
X130329719Y-113961866D01*
X130348132Y-113950830D01*
X130367538Y-113941651D01*
X130387750Y-113934419D01*
X130408574Y-113929203D01*
X130429809Y-113926053D01*
X130451250Y-113925000D01*
X130888750Y-113925000D01*
X130910191Y-113926053D01*
X130910191Y-113926053D01*
G37*
D16*
G04 #@! TD*
G04 #@! TO.P,R1,1*
G04 #@! TO.N,Net-(LED1-Pad2)*
X130670000Y-114400000D03*
D15*
G04 #@! TO.N,VCC*
G04 #@! TO.C,R1*
G36*
X129335191Y-113926053D02*
X129356426Y-113929203D01*
X129377250Y-113934419D01*
X129397462Y-113941651D01*
X129416868Y-113950830D01*
X129435281Y-113961866D01*
X129452524Y-113974654D01*
X129468430Y-113989070D01*
X129482846Y-114004976D01*
X129495634Y-114022219D01*
X129506670Y-114040632D01*
X129515849Y-114060038D01*
X129523081Y-114080250D01*
X129528297Y-114101074D01*
X129531447Y-114122309D01*
X129532500Y-114143750D01*
X129532500Y-114656250D01*
X129531447Y-114677691D01*
X129528297Y-114698926D01*
X129523081Y-114719750D01*
X129515849Y-114739962D01*
X129506670Y-114759368D01*
X129495634Y-114777781D01*
X129482846Y-114795024D01*
X129468430Y-114810930D01*
X129452524Y-114825346D01*
X129435281Y-114838134D01*
X129416868Y-114849170D01*
X129397462Y-114858349D01*
X129377250Y-114865581D01*
X129356426Y-114870797D01*
X129335191Y-114873947D01*
X129313750Y-114875000D01*
X128876250Y-114875000D01*
X128854809Y-114873947D01*
X128833574Y-114870797D01*
X128812750Y-114865581D01*
X128792538Y-114858349D01*
X128773132Y-114849170D01*
X128754719Y-114838134D01*
X128737476Y-114825346D01*
X128721570Y-114810930D01*
X128707154Y-114795024D01*
X128694366Y-114777781D01*
X128683330Y-114759368D01*
X128674151Y-114739962D01*
X128666919Y-114719750D01*
X128661703Y-114698926D01*
X128658553Y-114677691D01*
X128657500Y-114656250D01*
X128657500Y-114143750D01*
X128658553Y-114122309D01*
X128661703Y-114101074D01*
X128666919Y-114080250D01*
X128674151Y-114060038D01*
X128683330Y-114040632D01*
X128694366Y-114022219D01*
X128707154Y-114004976D01*
X128721570Y-113989070D01*
X128737476Y-113974654D01*
X128754719Y-113961866D01*
X128773132Y-113950830D01*
X128792538Y-113941651D01*
X128812750Y-113934419D01*
X128833574Y-113929203D01*
X128854809Y-113926053D01*
X128876250Y-113925000D01*
X129313750Y-113925000D01*
X129335191Y-113926053D01*
X129335191Y-113926053D01*
G37*
D16*
G04 #@! TD*
G04 #@! TO.P,R1,2*
G04 #@! TO.N,VCC*
X129095000Y-114400000D03*
D17*
G04 #@! TO.N,/SWDCLK*
X155020000Y-115000000D03*
G04 #@! TO.N,GND*
X146970000Y-118900000D03*
X121860000Y-105410000D03*
G04 #@! TO.N,/SWDIO*
X127220000Y-106400000D03*
G04 #@! TO.N,VCC*
X138920000Y-111000000D03*
X120650000Y-114470000D03*
X117220000Y-111000000D03*
G04 #@! TO.N,/~RESET*
X118110000Y-115550000D03*
X153420000Y-116450000D03*
G04 #@! TO.N,/SWDIO*
X155020000Y-114000000D03*
G04 #@! TO.N,/SWDCLK*
X127220000Y-107450000D03*
G04 #@! TO.N,/P.17*
X151220000Y-117300000D03*
X146970000Y-117300000D03*
G04 #@! TD*
D18*
G04 #@! TO.N,GND*
X156720000Y-113300000D02*
X156720000Y-116150000D01*
X156720000Y-112850000D02*
X156720000Y-113300000D01*
X156720000Y-116150000D02*
X156720000Y-118900000D01*
X156720000Y-111100000D02*
X156720000Y-110100000D01*
X156720000Y-112850000D02*
X156720000Y-111100000D01*
X156170000Y-110650000D02*
X156720000Y-110100000D01*
X156170000Y-111000000D02*
X156170000Y-110650000D01*
X155620000Y-110100000D02*
X156170000Y-110650000D01*
X155620000Y-110450000D02*
X155070000Y-111000000D01*
X155620000Y-110100000D02*
X155620000Y-110450000D01*
X155070000Y-110650000D02*
X154520000Y-110100000D01*
X155070000Y-111000000D02*
X155070000Y-110650000D01*
X149270000Y-111750000D02*
X148820000Y-111750000D01*
X154770000Y-111750000D02*
X149270000Y-111750000D01*
X155070000Y-111450000D02*
X154770000Y-111750000D01*
X155070000Y-111000000D02*
X155070000Y-111450000D01*
X148470001Y-110650001D02*
X147920000Y-110100000D01*
X148470001Y-110950001D02*
X148470001Y-110650001D01*
X148820000Y-111300000D02*
X148470001Y-110950001D01*
X148820000Y-111750000D02*
X148820000Y-111300000D01*
X156720000Y-123950000D02*
X156210000Y-124460000D01*
X156720000Y-118900000D02*
X156720000Y-123950000D01*
X147920000Y-118900000D02*
X147920000Y-117800000D01*
X119970000Y-106680000D02*
X119970000Y-105410000D01*
X119970000Y-105410000D02*
X121860000Y-105410000D01*
X121860000Y-105410000D02*
X121860000Y-105410000D01*
X147920000Y-118900000D02*
X146970000Y-118900000D01*
G04 #@! TO.N,VCC*
X119960000Y-104150000D02*
X119970000Y-104140000D01*
X120650000Y-124460000D02*
X120650000Y-114470000D01*
X147720000Y-111000000D02*
X147920000Y-111200000D01*
X146170000Y-111000000D02*
X147720000Y-111000000D01*
X146170000Y-111000000D02*
X138920000Y-111000000D01*
X120650000Y-114470000D02*
X120650000Y-114470000D01*
X117220000Y-110575736D02*
X117220000Y-111000000D01*
X117220000Y-106060000D02*
X117220000Y-110575736D01*
X119140000Y-104140000D02*
X117220000Y-106060000D01*
X119970000Y-104140000D02*
X119140000Y-104140000D01*
X129025000Y-114470000D02*
X129095000Y-114400000D01*
X120650000Y-114470000D02*
X129025000Y-114470000D01*
G04 #@! TO.N,/P.20*
X142120000Y-123310000D02*
X140970000Y-124460000D01*
X144090000Y-123310000D02*
X142120000Y-123310000D01*
X144490000Y-122910000D02*
X144090000Y-123310000D01*
X146860000Y-122510000D02*
X146460000Y-122910000D01*
X148830000Y-122510000D02*
X146860000Y-122510000D01*
X152870000Y-121480000D02*
X152650000Y-121700000D01*
X152870000Y-118000000D02*
X152870000Y-121480000D01*
X152650000Y-121700000D02*
X151610000Y-121700000D01*
X146460000Y-122910000D02*
X144490000Y-122910000D01*
X151610000Y-121700000D02*
X151200000Y-122110000D01*
X151200000Y-122110000D02*
X149230000Y-122110000D01*
X149230000Y-122110000D02*
X148830000Y-122510000D01*
G04 #@! TO.N,/P.19*
X143920000Y-122910000D02*
X141950000Y-122910000D01*
X146290000Y-122510000D02*
X144320000Y-122510000D01*
X139580000Y-123310000D02*
X138430000Y-124460000D01*
X146690000Y-122110000D02*
X146290000Y-122510000D01*
X141550000Y-123310000D02*
X139580000Y-123310000D01*
X148660000Y-122110000D02*
X146690000Y-122110000D01*
X152320000Y-121080000D02*
X152100000Y-121300000D01*
X152320000Y-118900000D02*
X152320000Y-121080000D01*
X144320000Y-122510000D02*
X143920000Y-122910000D01*
X152100000Y-121300000D02*
X151440000Y-121300000D01*
X141950000Y-122910000D02*
X141550000Y-123310000D01*
X151440000Y-121300000D02*
X151030000Y-121710000D01*
X151030000Y-121710000D02*
X149060000Y-121710000D01*
X149060000Y-121710000D02*
X148660000Y-122110000D01*
G04 #@! TO.N,/P.18*
X137040000Y-123310000D02*
X135890000Y-124460000D01*
X139010000Y-123310000D02*
X137040000Y-123310000D01*
X143750000Y-122510000D02*
X141780000Y-122510000D01*
X146120000Y-122110000D02*
X144150000Y-122110000D01*
X148480000Y-121710000D02*
X146520000Y-121710000D01*
X151770000Y-120810000D02*
X151680000Y-120900000D01*
X141780000Y-122510000D02*
X141380000Y-122910000D01*
X151770000Y-118000000D02*
X151770000Y-120810000D01*
X151680000Y-120900000D02*
X151270000Y-120900000D01*
X141380000Y-122910000D02*
X139410000Y-122910000D01*
X151270000Y-120900000D02*
X150860000Y-121310000D01*
X146520000Y-121710000D02*
X146120000Y-122110000D01*
X150860000Y-121310000D02*
X148880000Y-121310000D01*
X139410000Y-122910000D02*
X139010000Y-123310000D01*
X144150000Y-122110000D02*
X143750000Y-122510000D01*
X148880000Y-121310000D02*
X148480000Y-121710000D01*
G04 #@! TO.N,/P.17*
X134500000Y-123310000D02*
X133350000Y-124460000D01*
X136470000Y-123310000D02*
X134500000Y-123310000D01*
X136870000Y-122910000D02*
X136470000Y-123310000D01*
X139240000Y-122510000D02*
X138840000Y-122910000D01*
X138840000Y-122910000D02*
X136870000Y-122910000D01*
X141210000Y-122510000D02*
X139240000Y-122510000D01*
X141610000Y-122110000D02*
X141210000Y-122510000D01*
X143580000Y-122110000D02*
X141610000Y-122110000D01*
X143980000Y-121710000D02*
X143580000Y-122110000D01*
X151220000Y-118900000D02*
X151220000Y-120384302D01*
X145950000Y-121710000D02*
X143980000Y-121710000D01*
X150694302Y-120910000D02*
X148710000Y-120910000D01*
X148710000Y-120910000D02*
X148310000Y-121310000D01*
X148310000Y-121310000D02*
X146350000Y-121310000D01*
X151220000Y-120384302D02*
X150694302Y-120910000D01*
X146350000Y-121310000D02*
X145950000Y-121710000D01*
G04 #@! TO.N,/P.16*
X131960000Y-123310000D02*
X130810000Y-124460000D01*
X146180000Y-120910000D02*
X145780000Y-121310000D01*
X138660000Y-122510000D02*
X136700000Y-122510000D01*
X148540000Y-120510000D02*
X148140000Y-120910000D01*
X150670000Y-120320000D02*
X150480000Y-120510000D01*
X150480000Y-120510000D02*
X148540000Y-120510000D01*
X143410000Y-121710000D02*
X141440000Y-121710000D01*
X133930000Y-123310000D02*
X131960000Y-123310000D01*
X145780000Y-121310000D02*
X143810000Y-121310000D01*
X136700000Y-122510000D02*
X136300000Y-122910000D01*
X143810000Y-121310000D02*
X143410000Y-121710000D01*
X148140000Y-120910000D02*
X146180000Y-120910000D01*
X141440000Y-121710000D02*
X141040000Y-122110000D01*
X141040000Y-122110000D02*
X139060000Y-122110000D01*
X139060000Y-122110000D02*
X138660000Y-122510000D01*
X136300000Y-122910000D02*
X134330000Y-122910000D01*
X150670000Y-118000000D02*
X150670000Y-120320000D01*
X134330000Y-122910000D02*
X133930000Y-123310000D01*
G04 #@! TO.N,/P.24*
X155070000Y-118000000D02*
X155070000Y-122280000D01*
X155070000Y-122280000D02*
X154450000Y-122900000D01*
X154450000Y-122900000D02*
X152120000Y-122900000D01*
X152120000Y-122900000D02*
X151710000Y-123310000D01*
X149740000Y-123310000D02*
X148590000Y-124460000D01*
X151710000Y-123310000D02*
X149740000Y-123310000D01*
G04 #@! TO.N,/P.23*
X147200000Y-123310000D02*
X146050000Y-124460000D01*
X154520000Y-122250000D02*
X154270000Y-122500000D01*
X154520000Y-118900000D02*
X154520000Y-122250000D01*
X154270000Y-122500000D02*
X151950000Y-122500000D01*
X151950000Y-122500000D02*
X151540000Y-122910000D01*
X149170000Y-123310000D02*
X147200000Y-123310000D01*
X151540000Y-122910000D02*
X149570000Y-122910000D01*
X149570000Y-122910000D02*
X149170000Y-123310000D01*
G04 #@! TO.N,/P.22*
X146630000Y-123310000D02*
X144660000Y-123310000D01*
X147030000Y-122910000D02*
X146630000Y-123310000D01*
X149000000Y-122910000D02*
X147030000Y-122910000D01*
X144660000Y-123310000D02*
X143510000Y-124460000D01*
X153970000Y-121810000D02*
X153680000Y-122100000D01*
X153970000Y-118000000D02*
X153970000Y-121810000D01*
X153680000Y-122100000D02*
X151780000Y-122100000D01*
X151780000Y-122100000D02*
X151370000Y-122510000D01*
X151370000Y-122510000D02*
X149400000Y-122510000D01*
X149400000Y-122510000D02*
X149000000Y-122910000D01*
G04 #@! TO.N,/~RESET*
X123870000Y-109300000D02*
X123870000Y-109220000D01*
X118110000Y-123257919D02*
X118110000Y-124460000D01*
X118110000Y-115550000D02*
X118110000Y-115550000D01*
X123870000Y-109790000D02*
X118110000Y-115550000D01*
X123870000Y-109220000D02*
X123870000Y-109790000D01*
X153420000Y-118900000D02*
X153420000Y-117550000D01*
X118110000Y-115550000D02*
X118110000Y-123257919D01*
X153420000Y-117550000D02*
X153420000Y-116450000D01*
X153420000Y-116450000D02*
X153420000Y-116450000D01*
G04 #@! TO.N,/P.25*
X153970000Y-106380000D02*
X156210000Y-104140000D01*
X153970000Y-111000000D02*
X153970000Y-106380000D01*
G04 #@! TO.N,/P.26*
X153420000Y-104390000D02*
X153670000Y-104140000D01*
X153420000Y-110100000D02*
X153420000Y-104390000D01*
G04 #@! TO.N,/P.27*
X151130000Y-106500114D02*
X151130000Y-104140000D01*
X152870000Y-111000000D02*
X152870000Y-108240114D01*
X152870000Y-108240114D02*
X151130000Y-106500114D01*
G04 #@! TO.N,/P.28*
X149124188Y-104674188D02*
X148590000Y-104140000D01*
X149124188Y-105060000D02*
X149124188Y-104674188D01*
X152320000Y-110100000D02*
X152320000Y-108255812D01*
X152320000Y-108255812D02*
X149124188Y-105060000D01*
G04 #@! TO.N,/P.29*
X147710010Y-105800010D02*
X146050000Y-104140000D01*
X149298500Y-105800010D02*
X147710010Y-105800010D01*
X151770000Y-108271510D02*
X149298500Y-105800010D01*
X151770000Y-111000000D02*
X151770000Y-108271510D01*
G04 #@! TO.N,/P.30*
X145570020Y-106200020D02*
X143510000Y-104140000D01*
X149132812Y-106200020D02*
X145570020Y-106200020D01*
X151220000Y-108287208D02*
X149132812Y-106200020D01*
X151220000Y-110100000D02*
X151220000Y-108287208D01*
G04 #@! TO.N,/P.31*
X143430030Y-106600030D02*
X140970000Y-104140000D01*
X148967124Y-106600030D02*
X143430030Y-106600030D01*
X150670000Y-108302906D02*
X148967124Y-106600030D01*
X150670000Y-111000000D02*
X150670000Y-108302906D01*
G04 #@! TO.N,/P.00*
X148801436Y-107000040D02*
X141290040Y-107000040D01*
X150120000Y-108318604D02*
X148801436Y-107000040D01*
X141290040Y-107000040D02*
X138430000Y-104140000D01*
X150120000Y-110100000D02*
X150120000Y-108318604D01*
G04 #@! TO.N,/P.01*
X139150050Y-107400050D02*
X135890000Y-104140000D01*
X149570000Y-108334302D02*
X148635748Y-107400050D01*
X148635748Y-107400050D02*
X139150050Y-107400050D01*
X149570000Y-111000000D02*
X149570000Y-108334302D01*
G04 #@! TO.N,/P.02*
X149020000Y-110100000D02*
X149020000Y-108350000D01*
X149020000Y-108350000D02*
X148470060Y-107800060D01*
X137010060Y-107800060D02*
X133350000Y-104140000D01*
X148470060Y-107800060D02*
X137010060Y-107800060D01*
G04 #@! TO.N,/P.03*
X138970000Y-112300000D02*
X134320000Y-107650000D01*
X147920000Y-112300000D02*
X138970000Y-112300000D01*
X134870070Y-108200070D02*
X134320000Y-107650000D01*
X134320000Y-107650000D02*
X130810000Y-104140000D01*
G04 #@! TO.N,/P.04*
X128270000Y-105342081D02*
X128270000Y-104140000D01*
X148820000Y-112850000D02*
X135777919Y-112850000D01*
X135777919Y-112850000D02*
X128270000Y-105342081D01*
G04 #@! TO.N,/SWDIO*
X123980000Y-104250000D02*
X123870000Y-104140000D01*
X123910000Y-104100000D02*
X123870000Y-104140000D01*
X126920001Y-106100001D02*
X127220000Y-106400000D01*
X124960000Y-104140000D02*
X126920001Y-106100001D01*
X123870000Y-104140000D02*
X124960000Y-104140000D01*
X154060000Y-124460000D02*
X153670000Y-124460000D01*
X156170000Y-118000000D02*
X156170000Y-122350000D01*
X156170000Y-122350000D02*
X154060000Y-124460000D01*
X156170000Y-117550000D02*
X156170000Y-118000000D01*
X156170000Y-115500000D02*
X156170000Y-117550000D01*
X156170000Y-115150000D02*
X156170000Y-115300000D01*
X155020000Y-114000000D02*
X156170000Y-115150000D01*
X156170000Y-118000000D02*
X156170000Y-115300000D01*
G04 #@! TO.N,/SWDCLK*
X124150011Y-105690011D02*
X123870000Y-105410000D01*
X123880000Y-105400000D02*
X123870000Y-105410000D01*
X125180000Y-105410000D02*
X123870000Y-105410000D01*
X127220000Y-107450000D02*
X125180000Y-105410000D01*
X152290000Y-123300000D02*
X151130000Y-124460000D01*
X154620000Y-123300000D02*
X152290000Y-123300000D01*
X155620000Y-118900000D02*
X155620000Y-122300000D01*
X155620000Y-122300000D02*
X154620000Y-123300000D01*
X155620000Y-115600000D02*
X155020000Y-115000000D01*
X155620000Y-118900000D02*
X155620000Y-115600000D01*
G04 #@! TO.N,/P.17*
X151220000Y-118900000D02*
X151220000Y-117200000D01*
X151220000Y-117200000D02*
X151220000Y-117200000D01*
G04 #@! TO.N,/P.15*
X150120000Y-118900000D02*
X150120000Y-119405701D01*
X150120000Y-119405701D02*
X149415711Y-120109990D01*
X149415711Y-120109990D02*
X148370010Y-120109990D01*
X148370010Y-120109990D02*
X147970000Y-120510000D01*
X147970000Y-120510000D02*
X146010000Y-120510000D01*
X146010000Y-120510000D02*
X145610000Y-120910000D01*
X145610000Y-120910000D02*
X143640000Y-120910000D01*
X143640000Y-120910000D02*
X143240000Y-121310000D01*
X143240000Y-121310000D02*
X141270000Y-121310000D01*
X141270000Y-121310000D02*
X140870000Y-121710000D01*
X140870000Y-121710000D02*
X138890000Y-121710000D01*
X138890000Y-121710000D02*
X138490000Y-122110000D01*
X138490000Y-122110000D02*
X136530000Y-122110000D01*
X136530000Y-122110000D02*
X136130000Y-122510000D01*
X136130000Y-122510000D02*
X134160000Y-122510000D01*
X134160000Y-122510000D02*
X133760000Y-122910000D01*
X133760000Y-122910000D02*
X131790000Y-122910000D01*
X131790000Y-122910000D02*
X131390000Y-123310000D01*
X129420000Y-123310000D02*
X128270000Y-124460000D01*
X131390000Y-123310000D02*
X129420000Y-123310000D01*
G04 #@! TO.N,/P.14*
X149570000Y-118740000D02*
X149570000Y-118000000D01*
X149570000Y-119390002D02*
X149510001Y-119450001D01*
X149570000Y-119230000D02*
X149570000Y-119390000D01*
X149570000Y-119230000D02*
X149570000Y-118740000D01*
X149570000Y-119390002D02*
X149570000Y-119230000D01*
X149570000Y-119390000D02*
X149250020Y-119709980D01*
X149250020Y-119709980D02*
X148399980Y-119709980D01*
X124340000Y-123310000D02*
X123190000Y-124460000D01*
X128850000Y-123310000D02*
X124340000Y-123310000D01*
X129250000Y-122910000D02*
X128850000Y-123310000D01*
X131220000Y-122910000D02*
X129250000Y-122910000D01*
X133590000Y-122510000D02*
X131620000Y-122510000D01*
X138720000Y-121310000D02*
X138320000Y-121710000D01*
X138320000Y-121710000D02*
X136360000Y-121710000D01*
X136360000Y-121710000D02*
X135960000Y-122110000D01*
X133990000Y-122110000D02*
X133590000Y-122510000D01*
X135960000Y-122110000D02*
X133990000Y-122110000D01*
X131620000Y-122510000D02*
X131220000Y-122910000D01*
X140690000Y-121310000D02*
X140580000Y-121310000D01*
X140580000Y-121310000D02*
X138720000Y-121310000D01*
X140700000Y-121310000D02*
X140580000Y-121310000D01*
X141100000Y-120910000D02*
X140700000Y-121310000D01*
X148200020Y-119709980D02*
X147800000Y-120110000D01*
X143070000Y-120910000D02*
X141100000Y-120910000D01*
X149250020Y-119709980D02*
X148200020Y-119709980D01*
X145840000Y-120110000D02*
X145440000Y-120510000D01*
X145440000Y-120510000D02*
X143470000Y-120510000D01*
X147800000Y-120110000D02*
X145840000Y-120110000D01*
X143470000Y-120510000D02*
X143070000Y-120910000D01*
G04 #@! TO.N,/P.17*
X146970000Y-117300000D02*
X142582500Y-117300000D01*
X142570000Y-117312500D02*
X130670000Y-117312500D01*
X142582500Y-117300000D02*
X142570000Y-117312500D01*
G04 #@! TO.N,Net-(LED1-Pad2)*
X130670000Y-115737500D02*
X130670000Y-114400000D01*
G04 #@! TD*
M02*
