G04 #@! TF.GenerationSoftware,KiCad,Pcbnew,(5.0.1)-3*
G04 #@! TF.CreationDate,2018-11-27T12:57:36+01:00*
G04 #@! TF.ProjectId,Adafruit_FeatherWing,41646166727569745F46656174686572,rev?*
G04 #@! TF.SameCoordinates,Original*
G04 #@! TF.FileFunction,Soldermask,Top*
G04 #@! TF.FilePolarity,Negative*
%FSLAX46Y46*%
G04 Gerber Fmt 4.6, Leading zero omitted, Abs format (unit mm)*
G04 Created by KiCad (PCBNEW (5.0.1)-3) date 27.11.2018 12:57:36*
%MOMM*%
%LPD*%
G01*
G04 APERTURE LIST*
%ADD10C,0.100000*%
G04 APERTURE END LIST*
D10*
G36*
X157060000Y-125310000D02*
X155360000Y-125310000D01*
X155360000Y-123610000D01*
X157060000Y-123610000D01*
X157060000Y-125310000D01*
X157060000Y-125310000D01*
G37*
G36*
X136056630Y-123622299D02*
X136216855Y-123670903D01*
X136364520Y-123749831D01*
X136493949Y-123856051D01*
X136600169Y-123985480D01*
X136679097Y-124133145D01*
X136727701Y-124293370D01*
X136744112Y-124460000D01*
X136727701Y-124626630D01*
X136679097Y-124786855D01*
X136600169Y-124934520D01*
X136493949Y-125063949D01*
X136364520Y-125170169D01*
X136216855Y-125249097D01*
X136056630Y-125297701D01*
X135931752Y-125310000D01*
X135848248Y-125310000D01*
X135723370Y-125297701D01*
X135563145Y-125249097D01*
X135415480Y-125170169D01*
X135286051Y-125063949D01*
X135179831Y-124934520D01*
X135100903Y-124786855D01*
X135052299Y-124626630D01*
X135035888Y-124460000D01*
X135052299Y-124293370D01*
X135100903Y-124133145D01*
X135179831Y-123985480D01*
X135286051Y-123856051D01*
X135415480Y-123749831D01*
X135563145Y-123670903D01*
X135723370Y-123622299D01*
X135848248Y-123610000D01*
X135931752Y-123610000D01*
X136056630Y-123622299D01*
X136056630Y-123622299D01*
G37*
G36*
X118276630Y-123622299D02*
X118436855Y-123670903D01*
X118584520Y-123749831D01*
X118713949Y-123856051D01*
X118820169Y-123985480D01*
X118899097Y-124133145D01*
X118947701Y-124293370D01*
X118964112Y-124460000D01*
X118947701Y-124626630D01*
X118899097Y-124786855D01*
X118820169Y-124934520D01*
X118713949Y-125063949D01*
X118584520Y-125170169D01*
X118436855Y-125249097D01*
X118276630Y-125297701D01*
X118151752Y-125310000D01*
X118068248Y-125310000D01*
X117943370Y-125297701D01*
X117783145Y-125249097D01*
X117635480Y-125170169D01*
X117506051Y-125063949D01*
X117399831Y-124934520D01*
X117320903Y-124786855D01*
X117272299Y-124626630D01*
X117255888Y-124460000D01*
X117272299Y-124293370D01*
X117320903Y-124133145D01*
X117399831Y-123985480D01*
X117506051Y-123856051D01*
X117635480Y-123749831D01*
X117783145Y-123670903D01*
X117943370Y-123622299D01*
X118068248Y-123610000D01*
X118151752Y-123610000D01*
X118276630Y-123622299D01*
X118276630Y-123622299D01*
G37*
G36*
X120816630Y-123622299D02*
X120976855Y-123670903D01*
X121124520Y-123749831D01*
X121253949Y-123856051D01*
X121360169Y-123985480D01*
X121439097Y-124133145D01*
X121487701Y-124293370D01*
X121504112Y-124460000D01*
X121487701Y-124626630D01*
X121439097Y-124786855D01*
X121360169Y-124934520D01*
X121253949Y-125063949D01*
X121124520Y-125170169D01*
X120976855Y-125249097D01*
X120816630Y-125297701D01*
X120691752Y-125310000D01*
X120608248Y-125310000D01*
X120483370Y-125297701D01*
X120323145Y-125249097D01*
X120175480Y-125170169D01*
X120046051Y-125063949D01*
X119939831Y-124934520D01*
X119860903Y-124786855D01*
X119812299Y-124626630D01*
X119795888Y-124460000D01*
X119812299Y-124293370D01*
X119860903Y-124133145D01*
X119939831Y-123985480D01*
X120046051Y-123856051D01*
X120175480Y-123749831D01*
X120323145Y-123670903D01*
X120483370Y-123622299D01*
X120608248Y-123610000D01*
X120691752Y-123610000D01*
X120816630Y-123622299D01*
X120816630Y-123622299D01*
G37*
G36*
X123356630Y-123622299D02*
X123516855Y-123670903D01*
X123664520Y-123749831D01*
X123793949Y-123856051D01*
X123900169Y-123985480D01*
X123979097Y-124133145D01*
X124027701Y-124293370D01*
X124044112Y-124460000D01*
X124027701Y-124626630D01*
X123979097Y-124786855D01*
X123900169Y-124934520D01*
X123793949Y-125063949D01*
X123664520Y-125170169D01*
X123516855Y-125249097D01*
X123356630Y-125297701D01*
X123231752Y-125310000D01*
X123148248Y-125310000D01*
X123023370Y-125297701D01*
X122863145Y-125249097D01*
X122715480Y-125170169D01*
X122586051Y-125063949D01*
X122479831Y-124934520D01*
X122400903Y-124786855D01*
X122352299Y-124626630D01*
X122335888Y-124460000D01*
X122352299Y-124293370D01*
X122400903Y-124133145D01*
X122479831Y-123985480D01*
X122586051Y-123856051D01*
X122715480Y-123749831D01*
X122863145Y-123670903D01*
X123023370Y-123622299D01*
X123148248Y-123610000D01*
X123231752Y-123610000D01*
X123356630Y-123622299D01*
X123356630Y-123622299D01*
G37*
G36*
X125896630Y-123622299D02*
X126056855Y-123670903D01*
X126204520Y-123749831D01*
X126333949Y-123856051D01*
X126440169Y-123985480D01*
X126519097Y-124133145D01*
X126567701Y-124293370D01*
X126584112Y-124460000D01*
X126567701Y-124626630D01*
X126519097Y-124786855D01*
X126440169Y-124934520D01*
X126333949Y-125063949D01*
X126204520Y-125170169D01*
X126056855Y-125249097D01*
X125896630Y-125297701D01*
X125771752Y-125310000D01*
X125688248Y-125310000D01*
X125563370Y-125297701D01*
X125403145Y-125249097D01*
X125255480Y-125170169D01*
X125126051Y-125063949D01*
X125019831Y-124934520D01*
X124940903Y-124786855D01*
X124892299Y-124626630D01*
X124875888Y-124460000D01*
X124892299Y-124293370D01*
X124940903Y-124133145D01*
X125019831Y-123985480D01*
X125126051Y-123856051D01*
X125255480Y-123749831D01*
X125403145Y-123670903D01*
X125563370Y-123622299D01*
X125688248Y-123610000D01*
X125771752Y-123610000D01*
X125896630Y-123622299D01*
X125896630Y-123622299D01*
G37*
G36*
X128436630Y-123622299D02*
X128596855Y-123670903D01*
X128744520Y-123749831D01*
X128873949Y-123856051D01*
X128980169Y-123985480D01*
X129059097Y-124133145D01*
X129107701Y-124293370D01*
X129124112Y-124460000D01*
X129107701Y-124626630D01*
X129059097Y-124786855D01*
X128980169Y-124934520D01*
X128873949Y-125063949D01*
X128744520Y-125170169D01*
X128596855Y-125249097D01*
X128436630Y-125297701D01*
X128311752Y-125310000D01*
X128228248Y-125310000D01*
X128103370Y-125297701D01*
X127943145Y-125249097D01*
X127795480Y-125170169D01*
X127666051Y-125063949D01*
X127559831Y-124934520D01*
X127480903Y-124786855D01*
X127432299Y-124626630D01*
X127415888Y-124460000D01*
X127432299Y-124293370D01*
X127480903Y-124133145D01*
X127559831Y-123985480D01*
X127666051Y-123856051D01*
X127795480Y-123749831D01*
X127943145Y-123670903D01*
X128103370Y-123622299D01*
X128228248Y-123610000D01*
X128311752Y-123610000D01*
X128436630Y-123622299D01*
X128436630Y-123622299D01*
G37*
G36*
X130976630Y-123622299D02*
X131136855Y-123670903D01*
X131284520Y-123749831D01*
X131413949Y-123856051D01*
X131520169Y-123985480D01*
X131599097Y-124133145D01*
X131647701Y-124293370D01*
X131664112Y-124460000D01*
X131647701Y-124626630D01*
X131599097Y-124786855D01*
X131520169Y-124934520D01*
X131413949Y-125063949D01*
X131284520Y-125170169D01*
X131136855Y-125249097D01*
X130976630Y-125297701D01*
X130851752Y-125310000D01*
X130768248Y-125310000D01*
X130643370Y-125297701D01*
X130483145Y-125249097D01*
X130335480Y-125170169D01*
X130206051Y-125063949D01*
X130099831Y-124934520D01*
X130020903Y-124786855D01*
X129972299Y-124626630D01*
X129955888Y-124460000D01*
X129972299Y-124293370D01*
X130020903Y-124133145D01*
X130099831Y-123985480D01*
X130206051Y-123856051D01*
X130335480Y-123749831D01*
X130483145Y-123670903D01*
X130643370Y-123622299D01*
X130768248Y-123610000D01*
X130851752Y-123610000D01*
X130976630Y-123622299D01*
X130976630Y-123622299D01*
G37*
G36*
X133516630Y-123622299D02*
X133676855Y-123670903D01*
X133824520Y-123749831D01*
X133953949Y-123856051D01*
X134060169Y-123985480D01*
X134139097Y-124133145D01*
X134187701Y-124293370D01*
X134204112Y-124460000D01*
X134187701Y-124626630D01*
X134139097Y-124786855D01*
X134060169Y-124934520D01*
X133953949Y-125063949D01*
X133824520Y-125170169D01*
X133676855Y-125249097D01*
X133516630Y-125297701D01*
X133391752Y-125310000D01*
X133308248Y-125310000D01*
X133183370Y-125297701D01*
X133023145Y-125249097D01*
X132875480Y-125170169D01*
X132746051Y-125063949D01*
X132639831Y-124934520D01*
X132560903Y-124786855D01*
X132512299Y-124626630D01*
X132495888Y-124460000D01*
X132512299Y-124293370D01*
X132560903Y-124133145D01*
X132639831Y-123985480D01*
X132746051Y-123856051D01*
X132875480Y-123749831D01*
X133023145Y-123670903D01*
X133183370Y-123622299D01*
X133308248Y-123610000D01*
X133391752Y-123610000D01*
X133516630Y-123622299D01*
X133516630Y-123622299D01*
G37*
G36*
X141136630Y-123622299D02*
X141296855Y-123670903D01*
X141444520Y-123749831D01*
X141573949Y-123856051D01*
X141680169Y-123985480D01*
X141759097Y-124133145D01*
X141807701Y-124293370D01*
X141824112Y-124460000D01*
X141807701Y-124626630D01*
X141759097Y-124786855D01*
X141680169Y-124934520D01*
X141573949Y-125063949D01*
X141444520Y-125170169D01*
X141296855Y-125249097D01*
X141136630Y-125297701D01*
X141011752Y-125310000D01*
X140928248Y-125310000D01*
X140803370Y-125297701D01*
X140643145Y-125249097D01*
X140495480Y-125170169D01*
X140366051Y-125063949D01*
X140259831Y-124934520D01*
X140180903Y-124786855D01*
X140132299Y-124626630D01*
X140115888Y-124460000D01*
X140132299Y-124293370D01*
X140180903Y-124133145D01*
X140259831Y-123985480D01*
X140366051Y-123856051D01*
X140495480Y-123749831D01*
X140643145Y-123670903D01*
X140803370Y-123622299D01*
X140928248Y-123610000D01*
X141011752Y-123610000D01*
X141136630Y-123622299D01*
X141136630Y-123622299D01*
G37*
G36*
X143676630Y-123622299D02*
X143836855Y-123670903D01*
X143984520Y-123749831D01*
X144113949Y-123856051D01*
X144220169Y-123985480D01*
X144299097Y-124133145D01*
X144347701Y-124293370D01*
X144364112Y-124460000D01*
X144347701Y-124626630D01*
X144299097Y-124786855D01*
X144220169Y-124934520D01*
X144113949Y-125063949D01*
X143984520Y-125170169D01*
X143836855Y-125249097D01*
X143676630Y-125297701D01*
X143551752Y-125310000D01*
X143468248Y-125310000D01*
X143343370Y-125297701D01*
X143183145Y-125249097D01*
X143035480Y-125170169D01*
X142906051Y-125063949D01*
X142799831Y-124934520D01*
X142720903Y-124786855D01*
X142672299Y-124626630D01*
X142655888Y-124460000D01*
X142672299Y-124293370D01*
X142720903Y-124133145D01*
X142799831Y-123985480D01*
X142906051Y-123856051D01*
X143035480Y-123749831D01*
X143183145Y-123670903D01*
X143343370Y-123622299D01*
X143468248Y-123610000D01*
X143551752Y-123610000D01*
X143676630Y-123622299D01*
X143676630Y-123622299D01*
G37*
G36*
X146216630Y-123622299D02*
X146376855Y-123670903D01*
X146524520Y-123749831D01*
X146653949Y-123856051D01*
X146760169Y-123985480D01*
X146839097Y-124133145D01*
X146887701Y-124293370D01*
X146904112Y-124460000D01*
X146887701Y-124626630D01*
X146839097Y-124786855D01*
X146760169Y-124934520D01*
X146653949Y-125063949D01*
X146524520Y-125170169D01*
X146376855Y-125249097D01*
X146216630Y-125297701D01*
X146091752Y-125310000D01*
X146008248Y-125310000D01*
X145883370Y-125297701D01*
X145723145Y-125249097D01*
X145575480Y-125170169D01*
X145446051Y-125063949D01*
X145339831Y-124934520D01*
X145260903Y-124786855D01*
X145212299Y-124626630D01*
X145195888Y-124460000D01*
X145212299Y-124293370D01*
X145260903Y-124133145D01*
X145339831Y-123985480D01*
X145446051Y-123856051D01*
X145575480Y-123749831D01*
X145723145Y-123670903D01*
X145883370Y-123622299D01*
X146008248Y-123610000D01*
X146091752Y-123610000D01*
X146216630Y-123622299D01*
X146216630Y-123622299D01*
G37*
G36*
X148756630Y-123622299D02*
X148916855Y-123670903D01*
X149064520Y-123749831D01*
X149193949Y-123856051D01*
X149300169Y-123985480D01*
X149379097Y-124133145D01*
X149427701Y-124293370D01*
X149444112Y-124460000D01*
X149427701Y-124626630D01*
X149379097Y-124786855D01*
X149300169Y-124934520D01*
X149193949Y-125063949D01*
X149064520Y-125170169D01*
X148916855Y-125249097D01*
X148756630Y-125297701D01*
X148631752Y-125310000D01*
X148548248Y-125310000D01*
X148423370Y-125297701D01*
X148263145Y-125249097D01*
X148115480Y-125170169D01*
X147986051Y-125063949D01*
X147879831Y-124934520D01*
X147800903Y-124786855D01*
X147752299Y-124626630D01*
X147735888Y-124460000D01*
X147752299Y-124293370D01*
X147800903Y-124133145D01*
X147879831Y-123985480D01*
X147986051Y-123856051D01*
X148115480Y-123749831D01*
X148263145Y-123670903D01*
X148423370Y-123622299D01*
X148548248Y-123610000D01*
X148631752Y-123610000D01*
X148756630Y-123622299D01*
X148756630Y-123622299D01*
G37*
G36*
X151296630Y-123622299D02*
X151456855Y-123670903D01*
X151604520Y-123749831D01*
X151733949Y-123856051D01*
X151840169Y-123985480D01*
X151919097Y-124133145D01*
X151967701Y-124293370D01*
X151984112Y-124460000D01*
X151967701Y-124626630D01*
X151919097Y-124786855D01*
X151840169Y-124934520D01*
X151733949Y-125063949D01*
X151604520Y-125170169D01*
X151456855Y-125249097D01*
X151296630Y-125297701D01*
X151171752Y-125310000D01*
X151088248Y-125310000D01*
X150963370Y-125297701D01*
X150803145Y-125249097D01*
X150655480Y-125170169D01*
X150526051Y-125063949D01*
X150419831Y-124934520D01*
X150340903Y-124786855D01*
X150292299Y-124626630D01*
X150275888Y-124460000D01*
X150292299Y-124293370D01*
X150340903Y-124133145D01*
X150419831Y-123985480D01*
X150526051Y-123856051D01*
X150655480Y-123749831D01*
X150803145Y-123670903D01*
X150963370Y-123622299D01*
X151088248Y-123610000D01*
X151171752Y-123610000D01*
X151296630Y-123622299D01*
X151296630Y-123622299D01*
G37*
G36*
X153836630Y-123622299D02*
X153996855Y-123670903D01*
X154144520Y-123749831D01*
X154273949Y-123856051D01*
X154380169Y-123985480D01*
X154459097Y-124133145D01*
X154507701Y-124293370D01*
X154524112Y-124460000D01*
X154507701Y-124626630D01*
X154459097Y-124786855D01*
X154380169Y-124934520D01*
X154273949Y-125063949D01*
X154144520Y-125170169D01*
X153996855Y-125249097D01*
X153836630Y-125297701D01*
X153711752Y-125310000D01*
X153628248Y-125310000D01*
X153503370Y-125297701D01*
X153343145Y-125249097D01*
X153195480Y-125170169D01*
X153066051Y-125063949D01*
X152959831Y-124934520D01*
X152880903Y-124786855D01*
X152832299Y-124626630D01*
X152815888Y-124460000D01*
X152832299Y-124293370D01*
X152880903Y-124133145D01*
X152959831Y-123985480D01*
X153066051Y-123856051D01*
X153195480Y-123749831D01*
X153343145Y-123670903D01*
X153503370Y-123622299D01*
X153628248Y-123610000D01*
X153711752Y-123610000D01*
X153836630Y-123622299D01*
X153836630Y-123622299D01*
G37*
G36*
X138596630Y-123622299D02*
X138756855Y-123670903D01*
X138904520Y-123749831D01*
X139033949Y-123856051D01*
X139140169Y-123985480D01*
X139219097Y-124133145D01*
X139267701Y-124293370D01*
X139284112Y-124460000D01*
X139267701Y-124626630D01*
X139219097Y-124786855D01*
X139140169Y-124934520D01*
X139033949Y-125063949D01*
X138904520Y-125170169D01*
X138756855Y-125249097D01*
X138596630Y-125297701D01*
X138471752Y-125310000D01*
X138388248Y-125310000D01*
X138263370Y-125297701D01*
X138103145Y-125249097D01*
X137955480Y-125170169D01*
X137826051Y-125063949D01*
X137719831Y-124934520D01*
X137640903Y-124786855D01*
X137592299Y-124626630D01*
X137575888Y-124460000D01*
X137592299Y-124293370D01*
X137640903Y-124133145D01*
X137719831Y-123985480D01*
X137826051Y-123856051D01*
X137955480Y-123749831D01*
X138103145Y-123670903D01*
X138263370Y-123622299D01*
X138388248Y-123610000D01*
X138471752Y-123610000D01*
X138596630Y-123622299D01*
X138596630Y-123622299D01*
G37*
G36*
X160538623Y-121480327D02*
X160862198Y-121614356D01*
X161153412Y-121808939D01*
X161401061Y-122056588D01*
X161595644Y-122347802D01*
X161729673Y-122671377D01*
X161798000Y-123014881D01*
X161798000Y-123365119D01*
X161729673Y-123708623D01*
X161595644Y-124032198D01*
X161401061Y-124323412D01*
X161153412Y-124571061D01*
X160862198Y-124765644D01*
X160538623Y-124899673D01*
X160195119Y-124968000D01*
X159844881Y-124968000D01*
X159501377Y-124899673D01*
X159177802Y-124765644D01*
X158886588Y-124571061D01*
X158638939Y-124323412D01*
X158444356Y-124032198D01*
X158310327Y-123708623D01*
X158242000Y-123365119D01*
X158242000Y-123014881D01*
X158310327Y-122671377D01*
X158444356Y-122347802D01*
X158638939Y-122056588D01*
X158886588Y-121808939D01*
X159177802Y-121614356D01*
X159501377Y-121480327D01*
X159844881Y-121412000D01*
X160195119Y-121412000D01*
X160538623Y-121480327D01*
X160538623Y-121480327D01*
G37*
G36*
X114818623Y-121480327D02*
X115142198Y-121614356D01*
X115433412Y-121808939D01*
X115681061Y-122056588D01*
X115875644Y-122347802D01*
X116009673Y-122671377D01*
X116078000Y-123014881D01*
X116078000Y-123365119D01*
X116009673Y-123708623D01*
X115875644Y-124032198D01*
X115681061Y-124323412D01*
X115433412Y-124571061D01*
X115142198Y-124765644D01*
X114818623Y-124899673D01*
X114475119Y-124968000D01*
X114124881Y-124968000D01*
X113781377Y-124899673D01*
X113457802Y-124765644D01*
X113166588Y-124571061D01*
X112918939Y-124323412D01*
X112724356Y-124032198D01*
X112590327Y-123708623D01*
X112522000Y-123365119D01*
X112522000Y-123014881D01*
X112590327Y-122671377D01*
X112724356Y-122347802D01*
X112918939Y-122056588D01*
X113166588Y-121808939D01*
X113457802Y-121614356D01*
X113781377Y-121480327D01*
X114124881Y-121412000D01*
X114475119Y-121412000D01*
X114818623Y-121480327D01*
X114818623Y-121480327D01*
G37*
G36*
X154770000Y-119150000D02*
X154270000Y-119150000D01*
X154270000Y-118650000D01*
X154770000Y-118650000D01*
X154770000Y-119150000D01*
X154770000Y-119150000D01*
G37*
G36*
X148170000Y-119150000D02*
X147670000Y-119150000D01*
X147670000Y-118650000D01*
X148170000Y-118650000D01*
X148170000Y-119150000D01*
X148170000Y-119150000D01*
G37*
G36*
X149270000Y-119150000D02*
X148770000Y-119150000D01*
X148770000Y-118650000D01*
X149270000Y-118650000D01*
X149270000Y-119150000D01*
X149270000Y-119150000D01*
G37*
G36*
X150370000Y-119150000D02*
X149870000Y-119150000D01*
X149870000Y-118650000D01*
X150370000Y-118650000D01*
X150370000Y-119150000D01*
X150370000Y-119150000D01*
G37*
G36*
X151470000Y-119150000D02*
X150970000Y-119150000D01*
X150970000Y-118650000D01*
X151470000Y-118650000D01*
X151470000Y-119150000D01*
X151470000Y-119150000D01*
G37*
G36*
X152570000Y-119150000D02*
X152070000Y-119150000D01*
X152070000Y-118650000D01*
X152570000Y-118650000D01*
X152570000Y-119150000D01*
X152570000Y-119150000D01*
G37*
G36*
X153670000Y-119150000D02*
X153170000Y-119150000D01*
X153170000Y-118650000D01*
X153670000Y-118650000D01*
X153670000Y-119150000D01*
X153670000Y-119150000D01*
G37*
G36*
X155870000Y-119150000D02*
X155370000Y-119150000D01*
X155370000Y-118650000D01*
X155870000Y-118650000D01*
X155870000Y-119150000D01*
X155870000Y-119150000D01*
G37*
G36*
X156970000Y-119150000D02*
X156470000Y-119150000D01*
X156470000Y-118650000D01*
X156970000Y-118650000D01*
X156970000Y-119150000D01*
X156970000Y-119150000D01*
G37*
G36*
X153120000Y-118250000D02*
X152620000Y-118250000D01*
X152620000Y-117750000D01*
X153120000Y-117750000D01*
X153120000Y-118250000D01*
X153120000Y-118250000D01*
G37*
G36*
X149820000Y-118250000D02*
X149320000Y-118250000D01*
X149320000Y-117750000D01*
X149820000Y-117750000D01*
X149820000Y-118250000D01*
X149820000Y-118250000D01*
G37*
G36*
X150920000Y-118250000D02*
X150420000Y-118250000D01*
X150420000Y-117750000D01*
X150920000Y-117750000D01*
X150920000Y-118250000D01*
X150920000Y-118250000D01*
G37*
G36*
X156420000Y-118250000D02*
X155920000Y-118250000D01*
X155920000Y-117750000D01*
X156420000Y-117750000D01*
X156420000Y-118250000D01*
X156420000Y-118250000D01*
G37*
G36*
X155320000Y-118250000D02*
X154820000Y-118250000D01*
X154820000Y-117750000D01*
X155320000Y-117750000D01*
X155320000Y-118250000D01*
X155320000Y-118250000D01*
G37*
G36*
X154220000Y-118250000D02*
X153720000Y-118250000D01*
X153720000Y-117750000D01*
X154220000Y-117750000D01*
X154220000Y-118250000D01*
X154220000Y-118250000D01*
G37*
G36*
X152020000Y-118250000D02*
X151520000Y-118250000D01*
X151520000Y-117750000D01*
X152020000Y-117750000D01*
X152020000Y-118250000D01*
X152020000Y-118250000D01*
G37*
G36*
X148170000Y-118050000D02*
X147670000Y-118050000D01*
X147670000Y-117550000D01*
X148170000Y-117550000D01*
X148170000Y-118050000D01*
X148170000Y-118050000D01*
G37*
G36*
X131019116Y-116878595D02*
X131048313Y-116887452D01*
X131075218Y-116901833D01*
X131098808Y-116921192D01*
X131118167Y-116944782D01*
X131132548Y-116971687D01*
X131141405Y-117000884D01*
X131145000Y-117037390D01*
X131145000Y-117587610D01*
X131141405Y-117624116D01*
X131132548Y-117653313D01*
X131118167Y-117680218D01*
X131098808Y-117703808D01*
X131075218Y-117723167D01*
X131048313Y-117737548D01*
X131019116Y-117746405D01*
X130982610Y-117750000D01*
X130357390Y-117750000D01*
X130320884Y-117746405D01*
X130291687Y-117737548D01*
X130264782Y-117723167D01*
X130241192Y-117703808D01*
X130221833Y-117680218D01*
X130207452Y-117653313D01*
X130198595Y-117624116D01*
X130195000Y-117587610D01*
X130195000Y-117037390D01*
X130198595Y-117000884D01*
X130207452Y-116971687D01*
X130221833Y-116944782D01*
X130241192Y-116921192D01*
X130264782Y-116901833D01*
X130291687Y-116887452D01*
X130320884Y-116878595D01*
X130357390Y-116875000D01*
X130982610Y-116875000D01*
X131019116Y-116878595D01*
X131019116Y-116878595D01*
G37*
G36*
X149070000Y-117500000D02*
X148570000Y-117500000D01*
X148570000Y-117000000D01*
X149070000Y-117000000D01*
X149070000Y-117500000D01*
X149070000Y-117500000D01*
G37*
G36*
X148170000Y-116950000D02*
X147670000Y-116950000D01*
X147670000Y-116450000D01*
X148170000Y-116450000D01*
X148170000Y-116950000D01*
X148170000Y-116950000D01*
G37*
G36*
X149070000Y-116400000D02*
X148570000Y-116400000D01*
X148570000Y-115900000D01*
X149070000Y-115900000D01*
X149070000Y-116400000D01*
X149070000Y-116400000D01*
G37*
G36*
X156970000Y-116400000D02*
X156470000Y-116400000D01*
X156470000Y-115900000D01*
X156970000Y-115900000D01*
X156970000Y-116400000D01*
X156970000Y-116400000D01*
G37*
G36*
X131019116Y-115303595D02*
X131048313Y-115312452D01*
X131075218Y-115326833D01*
X131098808Y-115346192D01*
X131118167Y-115369782D01*
X131132548Y-115396687D01*
X131141405Y-115425884D01*
X131145000Y-115462390D01*
X131145000Y-116012610D01*
X131141405Y-116049116D01*
X131132548Y-116078313D01*
X131118167Y-116105218D01*
X131098808Y-116128808D01*
X131075218Y-116148167D01*
X131048313Y-116162548D01*
X131019116Y-116171405D01*
X130982610Y-116175000D01*
X130357390Y-116175000D01*
X130320884Y-116171405D01*
X130291687Y-116162548D01*
X130264782Y-116148167D01*
X130241192Y-116128808D01*
X130221833Y-116105218D01*
X130207452Y-116078313D01*
X130198595Y-116049116D01*
X130195000Y-116012610D01*
X130195000Y-115462390D01*
X130198595Y-115425884D01*
X130207452Y-115396687D01*
X130221833Y-115369782D01*
X130241192Y-115346192D01*
X130264782Y-115326833D01*
X130291687Y-115312452D01*
X130320884Y-115303595D01*
X130357390Y-115300000D01*
X130982610Y-115300000D01*
X131019116Y-115303595D01*
X131019116Y-115303595D01*
G37*
G36*
X148170000Y-115850000D02*
X147670000Y-115850000D01*
X147670000Y-115350000D01*
X148170000Y-115350000D01*
X148170000Y-115850000D01*
X148170000Y-115850000D01*
G37*
G36*
X149070000Y-115300000D02*
X148570000Y-115300000D01*
X148570000Y-114800000D01*
X149070000Y-114800000D01*
X149070000Y-115300000D01*
X149070000Y-115300000D01*
G37*
G36*
X129406616Y-113928595D02*
X129435813Y-113937452D01*
X129462718Y-113951833D01*
X129486308Y-113971192D01*
X129505667Y-113994782D01*
X129520048Y-114021687D01*
X129528905Y-114050884D01*
X129532500Y-114087390D01*
X129532500Y-114712610D01*
X129528905Y-114749116D01*
X129520048Y-114778313D01*
X129505667Y-114805218D01*
X129486308Y-114828808D01*
X129462718Y-114848167D01*
X129435813Y-114862548D01*
X129406616Y-114871405D01*
X129370110Y-114875000D01*
X128819890Y-114875000D01*
X128783384Y-114871405D01*
X128754187Y-114862548D01*
X128727282Y-114848167D01*
X128703692Y-114828808D01*
X128684333Y-114805218D01*
X128669952Y-114778313D01*
X128661095Y-114749116D01*
X128657500Y-114712610D01*
X128657500Y-114087390D01*
X128661095Y-114050884D01*
X128669952Y-114021687D01*
X128684333Y-113994782D01*
X128703692Y-113971192D01*
X128727282Y-113951833D01*
X128754187Y-113937452D01*
X128783384Y-113928595D01*
X128819890Y-113925000D01*
X129370110Y-113925000D01*
X129406616Y-113928595D01*
X129406616Y-113928595D01*
G37*
G36*
X130981616Y-113928595D02*
X131010813Y-113937452D01*
X131037718Y-113951833D01*
X131061308Y-113971192D01*
X131080667Y-113994782D01*
X131095048Y-114021687D01*
X131103905Y-114050884D01*
X131107500Y-114087390D01*
X131107500Y-114712610D01*
X131103905Y-114749116D01*
X131095048Y-114778313D01*
X131080667Y-114805218D01*
X131061308Y-114828808D01*
X131037718Y-114848167D01*
X131010813Y-114862548D01*
X130981616Y-114871405D01*
X130945110Y-114875000D01*
X130394890Y-114875000D01*
X130358384Y-114871405D01*
X130329187Y-114862548D01*
X130302282Y-114848167D01*
X130278692Y-114828808D01*
X130259333Y-114805218D01*
X130244952Y-114778313D01*
X130236095Y-114749116D01*
X130232500Y-114712610D01*
X130232500Y-114087390D01*
X130236095Y-114050884D01*
X130244952Y-114021687D01*
X130259333Y-113994782D01*
X130278692Y-113971192D01*
X130302282Y-113951833D01*
X130329187Y-113937452D01*
X130358384Y-113928595D01*
X130394890Y-113925000D01*
X130945110Y-113925000D01*
X130981616Y-113928595D01*
X130981616Y-113928595D01*
G37*
G36*
X148170000Y-114750000D02*
X147670000Y-114750000D01*
X147670000Y-114250000D01*
X148170000Y-114250000D01*
X148170000Y-114750000D01*
X148170000Y-114750000D01*
G37*
G36*
X149070000Y-114200000D02*
X148570000Y-114200000D01*
X148570000Y-113700000D01*
X149070000Y-113700000D01*
X149070000Y-114200000D01*
X149070000Y-114200000D01*
G37*
G36*
X148170000Y-113650000D02*
X147670000Y-113650000D01*
X147670000Y-113150000D01*
X148170000Y-113150000D01*
X148170000Y-113650000D01*
X148170000Y-113650000D01*
G37*
G36*
X156970000Y-113100000D02*
X156470000Y-113100000D01*
X156470000Y-112600000D01*
X156970000Y-112600000D01*
X156970000Y-113100000D01*
X156970000Y-113100000D01*
G37*
G36*
X149070000Y-113100000D02*
X148570000Y-113100000D01*
X148570000Y-112600000D01*
X149070000Y-112600000D01*
X149070000Y-113100000D01*
X149070000Y-113100000D01*
G37*
G36*
X148170000Y-112550000D02*
X147670000Y-112550000D01*
X147670000Y-112050000D01*
X148170000Y-112050000D01*
X148170000Y-112550000D01*
X148170000Y-112550000D01*
G37*
G36*
X149070000Y-112000000D02*
X148570000Y-112000000D01*
X148570000Y-111500000D01*
X149070000Y-111500000D01*
X149070000Y-112000000D01*
X149070000Y-112000000D01*
G37*
G36*
X148170000Y-111450000D02*
X147670000Y-111450000D01*
X147670000Y-110950000D01*
X148170000Y-110950000D01*
X148170000Y-111450000D01*
X148170000Y-111450000D01*
G37*
G36*
X154220000Y-111250000D02*
X153720000Y-111250000D01*
X153720000Y-110750000D01*
X154220000Y-110750000D01*
X154220000Y-111250000D01*
X154220000Y-111250000D01*
G37*
G36*
X155320000Y-111250000D02*
X154820000Y-111250000D01*
X154820000Y-110750000D01*
X155320000Y-110750000D01*
X155320000Y-111250000D01*
X155320000Y-111250000D01*
G37*
G36*
X156420000Y-111250000D02*
X155920000Y-111250000D01*
X155920000Y-110750000D01*
X156420000Y-110750000D01*
X156420000Y-111250000D01*
X156420000Y-111250000D01*
G37*
G36*
X152020000Y-111250000D02*
X151520000Y-111250000D01*
X151520000Y-110750000D01*
X152020000Y-110750000D01*
X152020000Y-111250000D01*
X152020000Y-111250000D01*
G37*
G36*
X150920000Y-111250000D02*
X150420000Y-111250000D01*
X150420000Y-110750000D01*
X150920000Y-110750000D01*
X150920000Y-111250000D01*
X150920000Y-111250000D01*
G37*
G36*
X153120000Y-111250000D02*
X152620000Y-111250000D01*
X152620000Y-110750000D01*
X153120000Y-110750000D01*
X153120000Y-111250000D01*
X153120000Y-111250000D01*
G37*
G36*
X149820000Y-111250000D02*
X149320000Y-111250000D01*
X149320000Y-110750000D01*
X149820000Y-110750000D01*
X149820000Y-111250000D01*
X149820000Y-111250000D01*
G37*
G36*
X156970000Y-110350000D02*
X156470000Y-110350000D01*
X156470000Y-109850000D01*
X156970000Y-109850000D01*
X156970000Y-110350000D01*
X156970000Y-110350000D01*
G37*
G36*
X155870000Y-110350000D02*
X155370000Y-110350000D01*
X155370000Y-109850000D01*
X155870000Y-109850000D01*
X155870000Y-110350000D01*
X155870000Y-110350000D01*
G37*
G36*
X153670000Y-110350000D02*
X153170000Y-110350000D01*
X153170000Y-109850000D01*
X153670000Y-109850000D01*
X153670000Y-110350000D01*
X153670000Y-110350000D01*
G37*
G36*
X152570000Y-110350000D02*
X152070000Y-110350000D01*
X152070000Y-109850000D01*
X152570000Y-109850000D01*
X152570000Y-110350000D01*
X152570000Y-110350000D01*
G37*
G36*
X151470000Y-110350000D02*
X150970000Y-110350000D01*
X150970000Y-109850000D01*
X151470000Y-109850000D01*
X151470000Y-110350000D01*
X151470000Y-110350000D01*
G37*
G36*
X154770000Y-110350000D02*
X154270000Y-110350000D01*
X154270000Y-109850000D01*
X154770000Y-109850000D01*
X154770000Y-110350000D01*
X154770000Y-110350000D01*
G37*
G36*
X150370000Y-110350000D02*
X149870000Y-110350000D01*
X149870000Y-109850000D01*
X150370000Y-109850000D01*
X150370000Y-110350000D01*
X150370000Y-110350000D01*
G37*
G36*
X148170000Y-110350000D02*
X147670000Y-110350000D01*
X147670000Y-109850000D01*
X148170000Y-109850000D01*
X148170000Y-110350000D01*
X148170000Y-110350000D01*
G37*
G36*
X149270000Y-110350000D02*
X148770000Y-110350000D01*
X148770000Y-109850000D01*
X149270000Y-109850000D01*
X149270000Y-110350000D01*
X149270000Y-110350000D01*
G37*
G36*
X121170000Y-109590000D02*
X118770000Y-109590000D01*
X118770000Y-108850000D01*
X121170000Y-108850000D01*
X121170000Y-109590000D01*
X121170000Y-109590000D01*
G37*
G36*
X125070000Y-109590000D02*
X122670000Y-109590000D01*
X122670000Y-108850000D01*
X125070000Y-108850000D01*
X125070000Y-109590000D01*
X125070000Y-109590000D01*
G37*
G36*
X125070000Y-108320000D02*
X122670000Y-108320000D01*
X122670000Y-107580000D01*
X125070000Y-107580000D01*
X125070000Y-108320000D01*
X125070000Y-108320000D01*
G37*
G36*
X121170000Y-108320000D02*
X118770000Y-108320000D01*
X118770000Y-107580000D01*
X121170000Y-107580000D01*
X121170000Y-108320000D01*
X121170000Y-108320000D01*
G37*
G36*
X160538623Y-103700327D02*
X160862198Y-103834356D01*
X161153412Y-104028939D01*
X161401061Y-104276588D01*
X161595644Y-104567802D01*
X161729673Y-104891377D01*
X161798000Y-105234881D01*
X161798000Y-105585119D01*
X161729673Y-105928623D01*
X161595644Y-106252198D01*
X161401061Y-106543412D01*
X161153412Y-106791061D01*
X160862198Y-106985644D01*
X160538623Y-107119673D01*
X160195119Y-107188000D01*
X159844881Y-107188000D01*
X159501377Y-107119673D01*
X159177802Y-106985644D01*
X158886588Y-106791061D01*
X158638939Y-106543412D01*
X158444356Y-106252198D01*
X158310327Y-105928623D01*
X158242000Y-105585119D01*
X158242000Y-105234881D01*
X158310327Y-104891377D01*
X158444356Y-104567802D01*
X158638939Y-104276588D01*
X158886588Y-104028939D01*
X159177802Y-103834356D01*
X159501377Y-103700327D01*
X159844881Y-103632000D01*
X160195119Y-103632000D01*
X160538623Y-103700327D01*
X160538623Y-103700327D01*
G37*
G36*
X114818623Y-103700327D02*
X115142198Y-103834356D01*
X115433412Y-104028939D01*
X115681061Y-104276588D01*
X115875644Y-104567802D01*
X116009673Y-104891377D01*
X116078000Y-105234881D01*
X116078000Y-105585119D01*
X116009673Y-105928623D01*
X115875644Y-106252198D01*
X115681061Y-106543412D01*
X115433412Y-106791061D01*
X115142198Y-106985644D01*
X114818623Y-107119673D01*
X114475119Y-107188000D01*
X114124881Y-107188000D01*
X113781377Y-107119673D01*
X113457802Y-106985644D01*
X113166588Y-106791061D01*
X112918939Y-106543412D01*
X112724356Y-106252198D01*
X112590327Y-105928623D01*
X112522000Y-105585119D01*
X112522000Y-105234881D01*
X112590327Y-104891377D01*
X112724356Y-104567802D01*
X112918939Y-104276588D01*
X113166588Y-104028939D01*
X113457802Y-103834356D01*
X113781377Y-103700327D01*
X114124881Y-103632000D01*
X114475119Y-103632000D01*
X114818623Y-103700327D01*
X114818623Y-103700327D01*
G37*
G36*
X125070000Y-107050000D02*
X122670000Y-107050000D01*
X122670000Y-106310000D01*
X125070000Y-106310000D01*
X125070000Y-107050000D01*
X125070000Y-107050000D01*
G37*
G36*
X121170000Y-107050000D02*
X118770000Y-107050000D01*
X118770000Y-106310000D01*
X121170000Y-106310000D01*
X121170000Y-107050000D01*
X121170000Y-107050000D01*
G37*
G36*
X125070000Y-105780000D02*
X122670000Y-105780000D01*
X122670000Y-105040000D01*
X125070000Y-105040000D01*
X125070000Y-105780000D01*
X125070000Y-105780000D01*
G37*
G36*
X121170000Y-105780000D02*
X118770000Y-105780000D01*
X118770000Y-105040000D01*
X121170000Y-105040000D01*
X121170000Y-105780000D01*
X121170000Y-105780000D01*
G37*
G36*
X143676630Y-103302299D02*
X143836855Y-103350903D01*
X143984520Y-103429831D01*
X144113949Y-103536051D01*
X144220169Y-103665480D01*
X144299097Y-103813145D01*
X144347701Y-103973370D01*
X144364112Y-104140000D01*
X144347701Y-104306630D01*
X144299097Y-104466855D01*
X144220169Y-104614520D01*
X144113949Y-104743949D01*
X143984520Y-104850169D01*
X143836855Y-104929097D01*
X143676630Y-104977701D01*
X143551752Y-104990000D01*
X143468248Y-104990000D01*
X143343370Y-104977701D01*
X143183145Y-104929097D01*
X143035480Y-104850169D01*
X142906051Y-104743949D01*
X142799831Y-104614520D01*
X142720903Y-104466855D01*
X142672299Y-104306630D01*
X142655888Y-104140000D01*
X142672299Y-103973370D01*
X142720903Y-103813145D01*
X142799831Y-103665480D01*
X142906051Y-103536051D01*
X143035480Y-103429831D01*
X143183145Y-103350903D01*
X143343370Y-103302299D01*
X143468248Y-103290000D01*
X143551752Y-103290000D01*
X143676630Y-103302299D01*
X143676630Y-103302299D01*
G37*
G36*
X157060000Y-104990000D02*
X155360000Y-104990000D01*
X155360000Y-103290000D01*
X157060000Y-103290000D01*
X157060000Y-104990000D01*
X157060000Y-104990000D01*
G37*
G36*
X153836630Y-103302299D02*
X153996855Y-103350903D01*
X154144520Y-103429831D01*
X154273949Y-103536051D01*
X154380169Y-103665480D01*
X154459097Y-103813145D01*
X154507701Y-103973370D01*
X154524112Y-104140000D01*
X154507701Y-104306630D01*
X154459097Y-104466855D01*
X154380169Y-104614520D01*
X154273949Y-104743949D01*
X154144520Y-104850169D01*
X153996855Y-104929097D01*
X153836630Y-104977701D01*
X153711752Y-104990000D01*
X153628248Y-104990000D01*
X153503370Y-104977701D01*
X153343145Y-104929097D01*
X153195480Y-104850169D01*
X153066051Y-104743949D01*
X152959831Y-104614520D01*
X152880903Y-104466855D01*
X152832299Y-104306630D01*
X152815888Y-104140000D01*
X152832299Y-103973370D01*
X152880903Y-103813145D01*
X152959831Y-103665480D01*
X153066051Y-103536051D01*
X153195480Y-103429831D01*
X153343145Y-103350903D01*
X153503370Y-103302299D01*
X153628248Y-103290000D01*
X153711752Y-103290000D01*
X153836630Y-103302299D01*
X153836630Y-103302299D01*
G37*
G36*
X148756630Y-103302299D02*
X148916855Y-103350903D01*
X149064520Y-103429831D01*
X149193949Y-103536051D01*
X149300169Y-103665480D01*
X149379097Y-103813145D01*
X149427701Y-103973370D01*
X149444112Y-104140000D01*
X149427701Y-104306630D01*
X149379097Y-104466855D01*
X149300169Y-104614520D01*
X149193949Y-104743949D01*
X149064520Y-104850169D01*
X148916855Y-104929097D01*
X148756630Y-104977701D01*
X148631752Y-104990000D01*
X148548248Y-104990000D01*
X148423370Y-104977701D01*
X148263145Y-104929097D01*
X148115480Y-104850169D01*
X147986051Y-104743949D01*
X147879831Y-104614520D01*
X147800903Y-104466855D01*
X147752299Y-104306630D01*
X147735888Y-104140000D01*
X147752299Y-103973370D01*
X147800903Y-103813145D01*
X147879831Y-103665480D01*
X147986051Y-103536051D01*
X148115480Y-103429831D01*
X148263145Y-103350903D01*
X148423370Y-103302299D01*
X148548248Y-103290000D01*
X148631752Y-103290000D01*
X148756630Y-103302299D01*
X148756630Y-103302299D01*
G37*
G36*
X151296630Y-103302299D02*
X151456855Y-103350903D01*
X151604520Y-103429831D01*
X151733949Y-103536051D01*
X151840169Y-103665480D01*
X151919097Y-103813145D01*
X151967701Y-103973370D01*
X151984112Y-104140000D01*
X151967701Y-104306630D01*
X151919097Y-104466855D01*
X151840169Y-104614520D01*
X151733949Y-104743949D01*
X151604520Y-104850169D01*
X151456855Y-104929097D01*
X151296630Y-104977701D01*
X151171752Y-104990000D01*
X151088248Y-104990000D01*
X150963370Y-104977701D01*
X150803145Y-104929097D01*
X150655480Y-104850169D01*
X150526051Y-104743949D01*
X150419831Y-104614520D01*
X150340903Y-104466855D01*
X150292299Y-104306630D01*
X150275888Y-104140000D01*
X150292299Y-103973370D01*
X150340903Y-103813145D01*
X150419831Y-103665480D01*
X150526051Y-103536051D01*
X150655480Y-103429831D01*
X150803145Y-103350903D01*
X150963370Y-103302299D01*
X151088248Y-103290000D01*
X151171752Y-103290000D01*
X151296630Y-103302299D01*
X151296630Y-103302299D01*
G37*
G36*
X128436630Y-103302299D02*
X128596855Y-103350903D01*
X128744520Y-103429831D01*
X128873949Y-103536051D01*
X128980169Y-103665480D01*
X129059097Y-103813145D01*
X129107701Y-103973370D01*
X129124112Y-104140000D01*
X129107701Y-104306630D01*
X129059097Y-104466855D01*
X128980169Y-104614520D01*
X128873949Y-104743949D01*
X128744520Y-104850169D01*
X128596855Y-104929097D01*
X128436630Y-104977701D01*
X128311752Y-104990000D01*
X128228248Y-104990000D01*
X128103370Y-104977701D01*
X127943145Y-104929097D01*
X127795480Y-104850169D01*
X127666051Y-104743949D01*
X127559831Y-104614520D01*
X127480903Y-104466855D01*
X127432299Y-104306630D01*
X127415888Y-104140000D01*
X127432299Y-103973370D01*
X127480903Y-103813145D01*
X127559831Y-103665480D01*
X127666051Y-103536051D01*
X127795480Y-103429831D01*
X127943145Y-103350903D01*
X128103370Y-103302299D01*
X128228248Y-103290000D01*
X128311752Y-103290000D01*
X128436630Y-103302299D01*
X128436630Y-103302299D01*
G37*
G36*
X133516630Y-103302299D02*
X133676855Y-103350903D01*
X133824520Y-103429831D01*
X133953949Y-103536051D01*
X134060169Y-103665480D01*
X134139097Y-103813145D01*
X134187701Y-103973370D01*
X134204112Y-104140000D01*
X134187701Y-104306630D01*
X134139097Y-104466855D01*
X134060169Y-104614520D01*
X133953949Y-104743949D01*
X133824520Y-104850169D01*
X133676855Y-104929097D01*
X133516630Y-104977701D01*
X133391752Y-104990000D01*
X133308248Y-104990000D01*
X133183370Y-104977701D01*
X133023145Y-104929097D01*
X132875480Y-104850169D01*
X132746051Y-104743949D01*
X132639831Y-104614520D01*
X132560903Y-104466855D01*
X132512299Y-104306630D01*
X132495888Y-104140000D01*
X132512299Y-103973370D01*
X132560903Y-103813145D01*
X132639831Y-103665480D01*
X132746051Y-103536051D01*
X132875480Y-103429831D01*
X133023145Y-103350903D01*
X133183370Y-103302299D01*
X133308248Y-103290000D01*
X133391752Y-103290000D01*
X133516630Y-103302299D01*
X133516630Y-103302299D01*
G37*
G36*
X136056630Y-103302299D02*
X136216855Y-103350903D01*
X136364520Y-103429831D01*
X136493949Y-103536051D01*
X136600169Y-103665480D01*
X136679097Y-103813145D01*
X136727701Y-103973370D01*
X136744112Y-104140000D01*
X136727701Y-104306630D01*
X136679097Y-104466855D01*
X136600169Y-104614520D01*
X136493949Y-104743949D01*
X136364520Y-104850169D01*
X136216855Y-104929097D01*
X136056630Y-104977701D01*
X135931752Y-104990000D01*
X135848248Y-104990000D01*
X135723370Y-104977701D01*
X135563145Y-104929097D01*
X135415480Y-104850169D01*
X135286051Y-104743949D01*
X135179831Y-104614520D01*
X135100903Y-104466855D01*
X135052299Y-104306630D01*
X135035888Y-104140000D01*
X135052299Y-103973370D01*
X135100903Y-103813145D01*
X135179831Y-103665480D01*
X135286051Y-103536051D01*
X135415480Y-103429831D01*
X135563145Y-103350903D01*
X135723370Y-103302299D01*
X135848248Y-103290000D01*
X135931752Y-103290000D01*
X136056630Y-103302299D01*
X136056630Y-103302299D01*
G37*
G36*
X138596630Y-103302299D02*
X138756855Y-103350903D01*
X138904520Y-103429831D01*
X139033949Y-103536051D01*
X139140169Y-103665480D01*
X139219097Y-103813145D01*
X139267701Y-103973370D01*
X139284112Y-104140000D01*
X139267701Y-104306630D01*
X139219097Y-104466855D01*
X139140169Y-104614520D01*
X139033949Y-104743949D01*
X138904520Y-104850169D01*
X138756855Y-104929097D01*
X138596630Y-104977701D01*
X138471752Y-104990000D01*
X138388248Y-104990000D01*
X138263370Y-104977701D01*
X138103145Y-104929097D01*
X137955480Y-104850169D01*
X137826051Y-104743949D01*
X137719831Y-104614520D01*
X137640903Y-104466855D01*
X137592299Y-104306630D01*
X137575888Y-104140000D01*
X137592299Y-103973370D01*
X137640903Y-103813145D01*
X137719831Y-103665480D01*
X137826051Y-103536051D01*
X137955480Y-103429831D01*
X138103145Y-103350903D01*
X138263370Y-103302299D01*
X138388248Y-103290000D01*
X138471752Y-103290000D01*
X138596630Y-103302299D01*
X138596630Y-103302299D01*
G37*
G36*
X141136630Y-103302299D02*
X141296855Y-103350903D01*
X141444520Y-103429831D01*
X141573949Y-103536051D01*
X141680169Y-103665480D01*
X141759097Y-103813145D01*
X141807701Y-103973370D01*
X141824112Y-104140000D01*
X141807701Y-104306630D01*
X141759097Y-104466855D01*
X141680169Y-104614520D01*
X141573949Y-104743949D01*
X141444520Y-104850169D01*
X141296855Y-104929097D01*
X141136630Y-104977701D01*
X141011752Y-104990000D01*
X140928248Y-104990000D01*
X140803370Y-104977701D01*
X140643145Y-104929097D01*
X140495480Y-104850169D01*
X140366051Y-104743949D01*
X140259831Y-104614520D01*
X140180903Y-104466855D01*
X140132299Y-104306630D01*
X140115888Y-104140000D01*
X140132299Y-103973370D01*
X140180903Y-103813145D01*
X140259831Y-103665480D01*
X140366051Y-103536051D01*
X140495480Y-103429831D01*
X140643145Y-103350903D01*
X140803370Y-103302299D01*
X140928248Y-103290000D01*
X141011752Y-103290000D01*
X141136630Y-103302299D01*
X141136630Y-103302299D01*
G37*
G36*
X130976630Y-103302299D02*
X131136855Y-103350903D01*
X131284520Y-103429831D01*
X131413949Y-103536051D01*
X131520169Y-103665480D01*
X131599097Y-103813145D01*
X131647701Y-103973370D01*
X131664112Y-104140000D01*
X131647701Y-104306630D01*
X131599097Y-104466855D01*
X131520169Y-104614520D01*
X131413949Y-104743949D01*
X131284520Y-104850169D01*
X131136855Y-104929097D01*
X130976630Y-104977701D01*
X130851752Y-104990000D01*
X130768248Y-104990000D01*
X130643370Y-104977701D01*
X130483145Y-104929097D01*
X130335480Y-104850169D01*
X130206051Y-104743949D01*
X130099831Y-104614520D01*
X130020903Y-104466855D01*
X129972299Y-104306630D01*
X129955888Y-104140000D01*
X129972299Y-103973370D01*
X130020903Y-103813145D01*
X130099831Y-103665480D01*
X130206051Y-103536051D01*
X130335480Y-103429831D01*
X130483145Y-103350903D01*
X130643370Y-103302299D01*
X130768248Y-103290000D01*
X130851752Y-103290000D01*
X130976630Y-103302299D01*
X130976630Y-103302299D01*
G37*
G36*
X146216630Y-103302299D02*
X146376855Y-103350903D01*
X146524520Y-103429831D01*
X146653949Y-103536051D01*
X146760169Y-103665480D01*
X146839097Y-103813145D01*
X146887701Y-103973370D01*
X146904112Y-104140000D01*
X146887701Y-104306630D01*
X146839097Y-104466855D01*
X146760169Y-104614520D01*
X146653949Y-104743949D01*
X146524520Y-104850169D01*
X146376855Y-104929097D01*
X146216630Y-104977701D01*
X146091752Y-104990000D01*
X146008248Y-104990000D01*
X145883370Y-104977701D01*
X145723145Y-104929097D01*
X145575480Y-104850169D01*
X145446051Y-104743949D01*
X145339831Y-104614520D01*
X145260903Y-104466855D01*
X145212299Y-104306630D01*
X145195888Y-104140000D01*
X145212299Y-103973370D01*
X145260903Y-103813145D01*
X145339831Y-103665480D01*
X145446051Y-103536051D01*
X145575480Y-103429831D01*
X145723145Y-103350903D01*
X145883370Y-103302299D01*
X146008248Y-103290000D01*
X146091752Y-103290000D01*
X146216630Y-103302299D01*
X146216630Y-103302299D01*
G37*
G36*
X125070000Y-104510000D02*
X122670000Y-104510000D01*
X122670000Y-103770000D01*
X125070000Y-103770000D01*
X125070000Y-104510000D01*
X125070000Y-104510000D01*
G37*
G36*
X121170000Y-104510000D02*
X118770000Y-104510000D01*
X118770000Y-103770000D01*
X121170000Y-103770000D01*
X121170000Y-104510000D01*
X121170000Y-104510000D01*
G37*
M02*
